<?xml version="1.0" standalone="no"?>
<!DOCTYPE svg PUBLIC "-//W3C//DTD SVG 20010904//EN"
 "http://www.w3.org/TR/2001/REC-SVG-20010904/DTD/svg10.dtd">
<svg version="1.0" xmlns="http://www.w3.org/2000/svg"
 width="3783.000000pt" height="5674.000000pt" viewBox="0 0 3783.000000 5674.000000"
 preserveAspectRatio="xMidYMid meet">

<g transform="translate(0.000000,5674.000000) scale(0.100000,-0.100000)"
fill="#000000" stroke="none">
<path d="M0 28370 l0 -28370 18915 0 18915 0 0 28370 0 28370 -18915 0 -18915
0 0 -28370z m16880 10385 c0 -11 -11 -15 -40 -15 -29 0 -40 4 -40 15 0 11 11
15 40 15 29 0 40 -4 40 -15z m350 -55 c0 -36 3 -40 25 -40 20 0 25 -5 25 -25
0 -25 1 -25 80 -25 l80 0 0 -40 0 -40 44 0 c42 0 74 -19 48 -28 -27 -9 -9 -22
28 -22 29 0 40 -4 40 -15 0 -11 12 -15 45 -15 39 0 46 -4 59 -28 8 -16 22 -35
31 -42 14 -12 18 -12 26 1 8 11 14 9 34 -13 13 -16 29 -28 35 -28 5 0 10 -11
10 -25 0 -22 4 -25 40 -25 36 0 40 -2 40 -25 0 -22 4 -25 40 -25 29 0 40 -4
40 -15 0 -11 11 -15 40 -15 36 0 40 -2 40 -25 0 -22 4 -25 40 -25 29 0 40 -4
40 -15 0 -11 11 -15 40 -15 l40 0 0 -40 0 -40 84 0 c55 0 87 -4 92 -12 4 -6 2
-14 -4 -16 -27 -9 -9 -22 29 -22 32 0 47 -6 71 -30 16 -16 34 -30 39 -30 5 0
9 -18 9 -40 0 -37 2 -40 28 -40 l28 0 12 -102 c17 -146 19 -138 -28 -138 l-40
0 0 -40 0 -40 40 0 40 0 0 -40 c0 -37 -2 -40 -26 -40 -15 0 -33 -8 -40 -17
-12 -16 -13 -15 -14 10 0 25 -3 27 -40 27 -38 0 -40 2 -40 30 0 28 -2 30 -40
30 -22 0 -40 5 -40 10 0 6 -18 10 -40 10 -22 0 -40 -4 -40 -10 0 -5 18 -10 40
-10 29 0 40 -4 40 -15 0 -11 -11 -15 -40 -15 -29 0 -40 -4 -40 -15 0 -12 -16
-15 -80 -15 -64 0 -80 3 -80 15 0 11 -11 15 -40 15 -29 0 -40 4 -40 15 0 11
-11 15 -40 15 -29 0 -40 -4 -40 -15 0 -13 -29 -15 -200 -15 l-200 0 0 25 c0
23 -4 25 -40 25 -29 0 -40 4 -40 15 0 12 -16 15 -80 15 -64 0 -80 3 -80 15 0
11 11 15 40 15 22 0 40 5 40 10 0 6 -34 10 -81 10 -76 0 -82 2 -110 29 -23 23
-29 39 -29 70 0 23 -4 41 -10 41 -5 0 -10 -7 -10 -16 0 -12 -10 -14 -47 -12
-56 4 -73 28 -19 28 40 0 43 5 19 32 -12 13 -30 18 -70 18 -38 0 -55 4 -59 15
-4 8 -15 15 -25 15 -17 0 -19 8 -19 80 0 47 -4 80 -10 80 -5 0 -10 -18 -10
-40 0 -29 -4 -40 -15 -40 -11 0 -15 11 -15 40 l0 40 -40 0 -40 0 0 40 c0 29
-4 40 -15 40 -11 0 -15 11 -15 40 0 22 -4 40 -10 40 -5 0 -10 18 -10 40 0 38
-2 40 -30 40 l-30 0 0 120 c0 73 -4 120 -10 120 -5 0 -10 -18 -10 -40 0 -38
-2 -40 -30 -40 -28 0 -30 2 -30 40 0 22 -4 40 -10 40 -5 0 -10 18 -10 40 l0
40 40 0 40 0 0 40 0 40 80 0 c47 0 80 -4 80 -10 0 -5 18 -10 40 -10 22 0 40 5
40 10 0 6 33 10 80 10 64 0 80 3 80 15 0 11 11 15 40 15 36 0 40 3 40 25 0 16
6 25 15 25 11 0 15 -11 15 -40z m-593 -342 c-2 -13 -4 -3 -4 22 0 25 2 35 4
23 2 -13 2 -33 0 -45z m83 -58 c0 -29 -4 -40 -15 -40 -11 0 -15 11 -15 40 0
29 4 40 15 40 11 0 15 -11 15 -40z m80 -160 c0 -29 -4 -40 -15 -40 -11 0 -15
11 -15 40 0 29 4 40 15 40 11 0 15 -11 15 -40z m14800 -750 c0 -5 -18 -10 -40
-10 -22 0 -40 5 -40 10 0 6 18 10 40 10 22 0 40 -4 40 -10z m240 0 c0 -6 -33
-10 -80 -10 -47 0 -80 4 -80 10 0 6 33 10 80 10 47 0 80 -4 80 -10z m0 -55 c0
-12 20 -15 120 -15 73 0 120 -4 120 -10 0 -5 18 -10 40 -10 l40 0 0 -40 0 -40
40 0 c22 0 40 5 40 10 0 6 18 10 40 10 22 0 40 -4 40 -10 0 -5 -18 -10 -40
-10 -38 0 -40 -2 -40 -30 0 -28 3 -30 36 -30 45 0 64 -19 64 -64 0 -32 3 -36
25 -36 23 0 25 -4 25 -40 0 -29 4 -40 15 -40 9 0 27 -12 40 -27 21 -24 26 -26
34 -13 9 13 14 12 33 -8 20 -19 21 -24 8 -32 -13 -8 -12 -13 8 -32 19 -20 24
-21 32 -8 8 13 13 12 32 -8 20 -19 21 -24 8 -33 -13 -8 -11 -13 13 -34 15 -13
27 -29 27 -35 0 -5 11 -10 25 -10 22 0 25 -4 25 -36 0 -42 15 -74 35 -74 7 0
22 -11 33 -25 20 -26 42 -33 42 -14 0 5 5 7 10 4 6 -3 10 -11 10 -16 0 -6 -4
-7 -10 -4 -22 13 -8 -17 18 -40 23 -21 25 -26 12 -34 -13 -9 -12 -14 9 -33 17
-17 25 -19 28 -10 8 20 33 -6 33 -33 0 -13 11 -32 25 -43 25 -20 33 -42 15
-42 -20 0 -10 -21 15 -30 20 -8 75 -77 75 -95 0 -3 5 -11 10 -18 6 -7 20 -25
31 -40 14 -18 27 -26 37 -22 8 3 19 0 24 -7 13 -21 9 -28 -17 -28 -31 0 -33
-18 -2 -29 13 -5 29 -16 37 -26 12 -14 12 -18 0 -25 -12 -7 -11 -12 5 -30 11
-12 25 -18 35 -15 22 7 36 -23 15 -31 -21 -9 -19 -18 13 -53 75 -83 82 -94 76
-116 -3 -13 -1 -26 5 -29 6 -4 11 -14 11 -22 0 -8 13 -29 30 -47 30 -32 39
-57 20 -57 -15 0 -12 -26 5 -40 11 -9 14 -22 10 -41 -3 -15 -1 -30 4 -34 6 -3
11 -15 11 -26 0 -20 35 -28 42 -9 6 19 9 -168 3 -247 -5 -62 -10 -83 -21 -83
-10 0 -14 -12 -14 -40 0 -29 -4 -40 -15 -40 -11 0 -15 -12 -15 -45 0 -35 3
-43 15 -39 22 9 8 -24 -16 -37 -16 -8 -19 -6 -19 16 0 16 -6 25 -15 25 -11 0
-15 -12 -15 -48 0 -50 -13 -71 -52 -85 -22 -8 -24 -27 -3 -27 22 0 19 -7 -17
-45 -18 -18 -38 -38 -45 -45 -45 -46 -77 -70 -94 -70 -11 0 -31 -12 -44 -27
-21 -24 -26 -26 -34 -13 -9 13 -14 12 -33 -9 -16 -16 -19 -25 -11 -28 16 -6 0
-38 -23 -47 -12 -4 -15 -2 -10 9 4 12 -4 15 -39 15 -33 0 -45 -4 -45 -15 0
-12 -20 -15 -120 -15 -100 0 -120 -2 -120 -15 0 -13 -24 -15 -160 -15 -139 0
-160 2 -160 16 0 13 -14 15 -92 13 -73 -2 -101 2 -131 16 -26 12 -50 16 -78
12 -37 -5 -45 -2 -74 27 -17 18 -45 37 -61 43 -75 28 -71 26 -46 30 38 7 14
23 -34 23 -37 0 -51 6 -76 30 -25 25 -37 30 -79 30 -37 0 -49 4 -49 15 0 11
-11 15 -40 15 -29 0 -40 4 -40 15 0 11 -11 15 -40 15 -22 0 -40 5 -40 10 0 6
-18 10 -40 10 -29 0 -40 4 -40 15 0 12 -16 15 -80 15 -64 0 -80 3 -80 15 0 13
-29 15 -200 15 -127 0 -200 4 -200 10 0 6 33 10 80 10 64 0 80 3 80 15 0 13
-42 15 -320 15 -278 0 -320 -2 -320 -15 0 -11 11 -15 40 -15 22 0 40 -4 40
-10 0 -6 -33 -10 -80 -10 -79 0 -80 0 -80 25 l0 25 -120 0 c-100 0 -120 -2
-120 -15 0 -12 16 -15 80 -15 47 0 80 -4 80 -10 0 -6 -47 -10 -120 -10 -73 0
-120 4 -120 10 0 6 -18 10 -40 10 -22 0 -40 -4 -40 -10 0 -5 -18 -10 -40 -10
l-40 0 -2 53 c-1 50 -2 50 -5 10 -4 -40 -6 -43 -34 -43 -27 0 -29 2 -30 43 -2
29 -3 34 -6 15 -4 -25 -8 -28 -44 -28 -28 0 -39 -4 -39 -15 0 -12 -20 -15
-120 -15 l-120 0 0 30 0 30 -80 0 -80 0 0 65 0 65 -40 0 c-36 0 -40 -2 -40
-25 0 -22 -4 -25 -40 -25 -22 0 -40 5 -40 10 0 6 7 10 15 10 11 0 15 11 15 40
0 36 -2 40 -25 40 l-25 0 0 240 c0 153 4 240 10 240 6 0 11 -19 12 -42 l1 -43
4 43 c2 23 8 42 14 42 5 0 9 18 9 40 0 29 4 40 15 40 11 0 15 11 15 40 0 22 5
40 10 40 6 0 10 18 10 40 l0 40 55 0 55 0 0 40 c0 29 4 40 15 40 11 0 15 11
15 40 l0 40 50 0 50 0 0 50 0 50 40 0 c38 0 40 2 40 30 0 28 2 30 40 30 29 0
40 -4 40 -15 0 -11 11 -15 40 -15 29 0 40 4 40 15 0 11 -11 15 -40 15 l-40 0
0 40 0 40 80 0 80 0 0 40 0 40 80 0 80 0 0 50 0 50 80 0 c64 0 80 3 80 15 0
11 11 15 40 15 29 0 40 4 40 15 0 11 -11 15 -40 15 -22 0 -40 5 -40 10 0 6 18
10 40 10 22 0 40 -4 40 -10 0 -5 18 -10 40 -10 36 0 40 3 40 25 0 25 1 25 80
25 64 0 80 3 80 15 0 12 -16 15 -80 15 -47 0 -80 4 -80 10 0 6 33 10 80 10
l80 0 0 40 0 40 40 0 c22 0 40 -4 40 -10 0 -5 25 -10 55 -10 l55 0 0 40 c0 36
3 40 25 40 20 0 25 5 25 25 0 23 4 25 40 25 36 0 40 3 40 25 0 23 4 25 40 25
22 0 40 -4 40 -10 0 -5 7 -10 15 -10 11 0 15 12 15 49 0 41 4 53 25 69 14 11
25 25 25 31 0 7 28 11 80 11 44 0 80 4 80 9 0 5 14 23 31 40 17 17 35 31 40
31 5 0 9 18 9 40 l0 40 40 0 40 0 0 40 0 40 40 0 c22 0 40 5 40 10 0 6 18 10
40 10 29 0 40 4 40 15 0 11 11 15 40 15 29 0 40 4 40 15 0 11 -11 15 -40 15
-22 0 -40 5 -40 10 0 6 18 10 40 10 22 0 40 -4 40 -10 0 -5 18 -10 40 -10 36
0 40 3 40 25 l0 25 200 0 c171 0 200 -2 200 -15z m-800 -105 c0 -5 -4 -10 -10
-10 -5 0 -10 5 -10 10 0 6 5 10 10 10 6 0 10 -4 10 -10z m-485 -400 c-3 -5
-22 -10 -41 -10 -19 0 -34 5 -34 10 0 6 18 10 41 10 24 0 38 -4 34 -10z m-640
-320 c-3 -5 -22 -10 -41 -10 -19 0 -34 5 -34 10 0 6 18 10 41 10 24 0 38 -4
34 -10z m-320 -160 c-3 -5 -26 -10 -51 -10 -28 0 -43 4 -39 10 3 6 26 10 51
10 28 0 43 -4 39 -10z m1120 -1460 c4 -6 -22 -10 -69 -10 -44 0 -76 4 -76 10
0 6 30 10 69 10 39 0 73 -4 76 -10z m2345 -314 c0 -3 -4 -8 -10 -11 -5 -3 -10
-1 -10 4 0 6 5 11 10 11 6 0 10 -2 10 -4z m-14819 -1418 c4 -6 53 -11 125 -11
66 -1 106 -3 91 -5 -23 -3 -26 -6 -16 -18 7 -9 31 -14 66 -14 29 0 70 -7 91
-15 22 -10 38 -12 40 -6 2 6 18 4 42 -4 22 -8 40 -10 42 -4 2 5 16 2 32 -6 16
-9 38 -13 50 -10 15 5 17 4 7 -3 -10 -7 0 -11 35 -15 125 -13 282 -40 311 -54
18 -8 37 -12 42 -8 6 3 21 -1 33 -9 12 -9 34 -16 48 -16 14 -1 36 -7 50 -15
14 -8 45 -15 70 -15 25 0 56 -7 70 -15 45 -26 115 -57 139 -61 34 -7 93 -32
111 -49 9 -8 45 -21 82 -30 36 -8 78 -22 94 -30 16 -8 46 -15 67 -15 25 0 37
-4 37 -14 0 -9 16 -17 43 -21 23 -4 56 -13 72 -21 17 -7 37 -13 45 -12 8 1 48
0 88 0 57 -2 72 -5 72 -17 0 -12 17 -15 83 -17 45 -1 100 -3 122 -4 22 -2 52
-3 67 -3 15 -1 34 -8 42 -16 10 -11 33 -16 68 -15 29 0 76 -2 103 -4 28 -3 88
-8 135 -10 85 -6 150 -19 267 -56 34 -11 73 -20 86 -20 14 0 27 -6 30 -14 3
-7 18 -17 34 -21 35 -8 55 -24 46 -38 -3 -5 -1 -7 5 -3 6 3 14 1 18 -5 4 -8 9
-7 15 2 7 11 12 9 24 -8 9 -12 31 -30 49 -38 18 -9 38 -27 44 -40 6 -13 25
-31 42 -40 16 -8 30 -20 30 -26 0 -5 11 -21 24 -33 12 -13 26 -31 29 -40 4 -9
13 -16 22 -16 8 0 15 -9 15 -19 0 -11 5 -23 10 -26 6 -3 10 -15 10 -27 0 -14
5 -18 15 -14 13 4 15 -8 15 -74 0 -44 -3 -80 -8 -80 -4 0 -6 -18 -4 -40 2 -22
8 -40 13 -40 5 0 9 -17 10 -37 1 -55 23 -109 43 -105 19 3 22 -14 4 -20 -10
-4 -10 -10 0 -32 6 -15 12 -45 12 -66 0 -29 5 -43 20 -52 11 -7 20 -20 20 -28
0 -9 4 -20 9 -26 5 -5 18 -34 29 -64 11 -30 27 -72 36 -92 14 -33 14 -38 1
-38 -18 0 -18 1 0 -43 8 -20 15 -55 15 -77 0 -22 5 -40 10 -40 6 0 10 -19 10
-42 0 -31 3 -39 10 -28 7 11 11 8 20 -15 6 -17 18 -43 26 -59 8 -16 14 -44 14
-62 0 -20 9 -44 25 -62 14 -17 25 -35 25 -41 0 -6 5 -11 10 -11 6 0 10 -18 10
-40 0 -31 6 -45 29 -66 16 -14 31 -38 35 -55 3 -16 15 -48 26 -71 11 -23 20
-52 20 -65 0 -14 6 -23 15 -23 11 0 15 -11 15 -40 0 -29 4 -40 15 -40 11 0 15
-11 15 -40 0 -33 3 -40 20 -40 17 0 20 -7 20 -40 0 -22 -4 -40 -10 -40 -5 0
-10 -18 -10 -40 0 -29 4 -40 15 -40 13 0 15 -20 15 -120 0 -100 -2 -120 -15
-120 -9 0 -15 -10 -15 -26 0 -14 -7 -32 -15 -40 -12 -13 -14 -36 -8 -135 5
-107 4 -119 -10 -119 -15 0 -17 -15 -17 -119 0 -86 3 -121 13 -124 8 -4 3 -14
-15 -31 -28 -25 -36 -46 -18 -46 20 0 10 -21 -15 -30 -13 -5 -30 -18 -37 -30
-14 -23 -34 -26 -41 -7 -2 7 -8 8 -13 3 -5 -5 -4 -11 4 -13 6 -3 12 -11 12
-19 0 -10 -12 -14 -40 -14 -29 0 -40 -4 -40 -15 0 -11 -11 -15 -40 -15 -38 0
-54 -13 -27 -23 10 -4 10 -7 0 -18 -11 -11 -13 -10 -13 4 0 25 -18 21 -45 -10
-20 -23 -26 -26 -34 -13 -8 12 -13 12 -30 -4 -25 -22 -27 -36 -6 -36 11 0 15
-12 15 -50 0 -27 3 -50 8 -50 4 0 13 -13 20 -30 11 -23 20 -30 43 -30 16 0 29
-4 29 -9 0 -5 18 -27 40 -50 22 -22 40 -48 40 -56 0 -8 4 -23 10 -33 39 -71
50 -110 50 -179 0 -42 4 -73 10 -73 6 0 10 12 10 26 0 23 2 25 16 13 8 -7 13
-21 10 -31 -2 -11 2 -34 10 -53 10 -26 11 -34 1 -38 -15 -5 19 -47 39 -47 6 0
21 -16 33 -35 11 -20 29 -39 40 -43 11 -4 30 -23 43 -42 21 -32 29 -35 76 -38
l52 -3 0 -40 0 -39 80 0 c64 0 80 -3 80 -15 0 -11 -11 -15 -40 -15 l-40 0 0
-40 0 -40 40 0 40 0 0 -40 c0 -36 -2 -40 -25 -40 -22 0 -25 -4 -25 -40 l0 -40
-40 0 -40 0 0 -40 c0 -36 -3 -40 -24 -40 -24 0 -86 -51 -86 -71 0 -5 -5 -9
-11 -9 -6 0 -20 -11 -31 -25 -11 -14 -24 -25 -29 -25 -5 0 -9 11 -9 25 0 14
-4 25 -10 25 -5 0 -10 -18 -10 -40 0 -29 -4 -40 -15 -40 -11 0 -15 -11 -15
-40 0 -29 -4 -40 -15 -40 -8 0 -15 -7 -15 -15 0 -11 -11 -15 -40 -15 -22 0
-40 -5 -40 -10 0 -13 -15 -32 -53 -70 -46 -46 -47 -47 -78 -80 -16 -17 -29
-34 -29 -36 0 -3 -5 -10 -10 -17 -6 -7 -17 -21 -24 -32 -12 -16 -16 -17 -30
-6 -14 12 -16 9 -16 -28 l0 -41 -85 0 c-84 0 -85 0 -100 30 -8 16 -27 37 -41
46 -23 15 -50 64 -58 104 -16 81 -19 91 -32 86 -7 -3 -11 0 -8 8 2 6 -2 28
-10 48 -35 83 -38 398 -9 896 3 63 2 92 -6 92 -7 0 -11 36 -11 108 -1 91 -12
201 -37 340 -3 17 -11 32 -18 32 -8 0 -16 17 -20 40 -4 22 -10 42 -15 45 -4 3
-11 21 -14 40 -4 19 -11 35 -16 35 -5 0 -18 31 -30 70 -11 38 -27 76 -35 84
-8 8 -15 21 -15 30 0 8 -4 17 -9 21 -6 3 -17 39 -26 80 -9 41 -23 79 -31 86
-8 7 -12 20 -8 31 8 25 -14 78 -32 78 -8 0 -14 7 -14 15 0 23 -42 145 -50 145
-12 0 -34 61 -32 86 1 12 -5 35 -13 51 -8 15 -15 45 -15 66 0 26 -4 37 -15 37
-12 0 -15 15 -15 73 0 45 -9 106 -25 165 -14 51 -25 108 -25 127 0 20 -6 35
-15 39 -8 3 -15 11 -15 18 0 7 -6 25 -14 40 -8 15 -17 40 -21 57 -3 17 -17 46
-30 65 -13 19 -26 45 -30 57 -12 42 -30 79 -37 79 -5 0 -8 4 -8 9 0 5 -13 24
-29 41 -72 78 -111 110 -133 110 -11 0 -29 11 -40 25 -18 23 -25 25 -109 25
-88 0 -89 0 -89 -25 0 -20 -5 -25 -25 -25 -22 0 -25 -4 -25 -40 l0 -40 -40 0
-40 0 0 -80 c0 -64 3 -80 15 -80 11 0 15 -11 15 -40 0 -36 3 -40 25 -40 23 0
25 -3 25 -49 0 -41 4 -53 25 -69 14 -11 25 -29 25 -40 0 -11 12 -34 28 -50 34
-37 42 -49 66 -92 25 -46 46 -70 62 -70 6 0 22 -16 33 -36 12 -20 30 -38 41
-41 11 -3 28 -20 39 -39 11 -19 32 -39 46 -44 22 -8 25 -15 25 -60 0 -39 4
-50 16 -50 31 0 44 -27 44 -94 0 -37 -4 -66 -10 -66 -15 0 -12 -77 3 -83 7 -3
5 -8 -8 -13 -11 -4 -26 -16 -33 -26 -7 -10 -22 -18 -33 -18 -10 0 -19 -4 -19
-10 0 -5 -9 -10 -19 -10 -10 0 -21 -7 -25 -15 -3 -8 -12 -15 -19 -15 -21 0
-55 -42 -39 -47 16 -6 -3 -33 -23 -33 -6 0 -18 -11 -25 -25 -7 -14 -20 -25
-27 -25 -15 0 -16 -1 -75 -50 -34 -28 -37 -29 -47 -13 -9 17 -10 17 -16 1 -4
-10 -11 -15 -16 -13 -5 3 -16 -3 -26 -15 -10 -11 -23 -20 -29 -20 -7 0 -21
-11 -32 -25 -11 -14 -29 -25 -40 -25 -11 0 -34 -13 -50 -30 l-30 -30 -121 0
-120 0 -40 -40 c-22 -22 -44 -40 -50 -40 -7 0 -11 -32 -11 -90 0 -53 4 -90 10
-90 6 0 10 -4 10 -9 0 -8 32 -46 68 -83 4 -3 21 -20 37 -36 17 -17 35 -35 40
-40 40 -40 78 -72 86 -72 5 0 9 -4 9 -9 0 -5 14 -23 31 -40 23 -24 39 -31 69
-31 24 0 40 -5 44 -15 3 -8 12 -15 20 -15 8 0 23 -11 34 -25 11 -14 29 -25 40
-25 11 0 34 -13 50 -30 24 -24 39 -30 71 -30 31 0 41 4 41 16 0 9 6 14 13 12
19 -7 66 -81 67 -105 0 -14 6 -23 15 -23 13 0 15 -20 15 -120 0 -100 -2 -120
-15 -120 -18 0 -22 -76 -4 -82 14 -5 -56 -117 -77 -125 -8 -3 -14 -11 -14 -19
0 -9 -11 -14 -29 -14 -16 0 -31 -6 -35 -15 -3 -8 -12 -15 -20 -15 -8 0 -23
-11 -34 -25 -22 -27 -37 -32 -46 -12 -5 9 -8 8 -13 -3 -3 -8 -19 -28 -35 -43
-30 -31 -35 -43 -16 -49 29 -10 -8 -28 -57 -28 -45 0 -57 -4 -73 -25 -11 -14
-25 -25 -31 -25 -6 0 -11 -7 -11 -15 0 -12 -16 -15 -84 -15 -55 0 -87 4 -92
12 -4 6 -2 14 4 16 26 8 10 22 -27 22 -49 0 -106 43 -81 60 12 8 8 16 -27 48
l-43 39 0 116 c0 65 -4 117 -9 117 -5 0 -12 36 -16 80 -4 44 -11 80 -16 80 -5
0 -9 13 -9 29 0 17 -5 33 -11 37 -8 5 -7 9 1 14 7 4 10 14 7 21 -8 17 -30 52
-37 59 -20 20 -33 63 -38 119 -2 38 -11 73 -19 83 -9 10 -13 24 -10 32 4 9 0
30 -7 48 -8 18 -17 70 -21 116 -4 45 -11 82 -16 82 -5 0 -9 18 -9 40 0 33 -3
40 -20 40 -18 0 -20 7 -20 53 0 54 -18 105 -50 142 -10 11 -20 41 -23 66 -7
50 -17 78 -46 124 -11 17 -27 63 -37 103 -11 44 -23 72 -31 72 -7 0 -13 9 -13
19 0 10 -6 21 -13 24 -7 2 -18 25 -24 50 -7 25 -19 52 -28 60 -8 9 -15 18 -15
21 0 8 -61 66 -71 66 -5 0 -9 4 -9 9 0 5 -14 23 -31 40 -22 23 -40 31 -65 31
-36 0 -48 7 -93 51 -32 33 -51 56 -51 64 0 3 -11 16 -25 29 -14 13 -25 27 -25
32 0 4 -12 21 -27 36 -15 15 -21 28 -15 28 19 0 14 16 -15 48 -37 39 -44 50
-68 96 -11 21 -30 46 -42 56 -13 10 -23 27 -23 39 0 20 -5 21 -90 21 -53 0
-90 -4 -90 -10 0 -5 9 -10 20 -10 28 0 25 -19 -5 -30 -33 -13 -75 -82 -75
-124 0 -18 -7 -39 -15 -46 -10 -8 -15 -31 -15 -66 0 -56 -21 -123 -52 -163
-10 -13 -18 -36 -18 -52 0 -15 -4 -31 -10 -34 -5 -3 -10 -14 -10 -23 0 -10 -9
-23 -20 -30 -11 -7 -20 -21 -20 -32 0 -11 -8 -34 -18 -52 -10 -18 -22 -46 -26
-63 -4 -16 -18 -41 -31 -55 -84 -90 -85 -91 -85 -131 0 -21 -4 -39 -10 -39 -5
0 -10 -22 -10 -50 0 -27 5 -50 10 -50 6 0 10 -50 10 -130 0 -108 2 -128 14
-124 25 9 33 -27 39 -166 3 -81 10 -136 16 -138 14 -5 14 -82 1 -82 -5 0 -10
-18 -10 -40 0 -22 4 -40 9 -40 14 0 25 -154 12 -158 -6 -2 -11 -21 -11 -43 0
-21 -4 -39 -9 -39 -6 0 -11 -17 -13 -37 -3 -35 -6 -38 -35 -41 -31 -3 -33 -5
-33 -43 0 -32 -7 -47 -36 -77 l-36 -37 -139 -1 c-105 0 -142 3 -150 13 -8 9
-38 13 -95 13 -68 0 -84 3 -84 15 0 11 -11 15 -40 15 -29 0 -40 -4 -40 -15 0
-21 -14 -19 -36 6 -15 17 -16 22 -4 29 11 6 8 15 -13 40 -15 17 -27 26 -27 18
-1 -9 -5 -7 -14 5 -7 9 -25 17 -40 17 -21 0 -26 5 -26 24 0 14 -4 28 -10 31
-17 10 -11 25 10 25 17 0 20 7 20 40 0 22 -4 40 -10 40 -5 0 -10 -11 -10 -25
0 -32 -11 -32 -42 3 -16 19 -27 45 -30 76 -3 26 -13 55 -22 65 -20 22 -21 41
-1 41 11 0 15 11 15 40 0 22 5 40 10 40 6 0 10 33 10 80 0 64 3 80 15 80 11 0
15 11 15 40 0 29 4 40 15 40 8 0 15 -4 15 -10 0 -5 18 -10 40 -10 l40 0 0 40
c0 33 3 40 20 40 11 0 20 5 20 10 0 6 -9 10 -21 10 -20 0 -21 4 -17 90 1 50 2
86 0 80 -2 -5 -21 -10 -43 -10 -34 0 -39 3 -39 23 -1 25 -25 62 -42 62 -6 0
-16 9 -22 20 -6 11 -16 24 -22 30 -6 5 -18 23 -28 38 -9 15 -28 32 -42 37 -13
5 -24 14 -24 20 0 5 -8 10 -17 10 -17 0 -43 40 -43 67 0 7 -4 13 -9 13 -10 0
-45 85 -61 150 -6 25 -18 69 -27 99 -10 38 -15 94 -14 188 1 80 -2 132 -7 129
-11 -6 -26 129 -17 144 3 5 -1 10 -9 10 -9 0 -16 5 -16 10 0 6 -12 22 -27 35
-23 20 -26 26 -13 34 12 8 12 13 -4 30 -14 16 -31 21 -68 21 -45 0 -48 2 -48
25 0 25 -1 25 -80 25 -47 0 -80 -4 -80 -10 0 -5 -18 -10 -40 -10 -38 0 -40 2
-40 30 0 29 -1 30 -50 30 -27 0 -50 5 -50 10 0 6 5 10 10 10 6 0 10 7 10 15 0
11 -11 15 -40 15 -22 0 -40 5 -40 11 0 14 -26 39 -41 39 -6 0 -18 8 -25 18
-13 16 -13 16 -14 0 0 -24 -20 -23 -20 0 0 23 -19 42 -42 42 -15 0 -18 9 -18
50 0 49 -1 50 -30 50 -28 0 -30 2 -30 40 0 32 -4 40 -19 40 -21 0 -61 85 -61
131 0 37 -20 38 -21 2 l0 -28 -12 24 c-9 19 -9 25 1 29 20 6 15 52 -7 52 -16
0 -19 10 -23 72 -7 92 2 278 13 278 5 0 9 18 9 40 0 22 -5 40 -10 40 -12 0 -2
232 10 240 4 3 11 39 15 80 4 41 11 80 15 85 13 18 29 75 21 75 -5 0 -5 17 0
38 5 20 14 62 21 92 6 30 19 66 28 80 10 14 21 44 25 68 4 23 12 42 19 42 12
0 36 54 36 82 0 8 9 23 20 33 11 10 20 24 20 32 0 7 4 13 9 13 5 0 16 16 25
35 9 19 32 51 51 71 19 20 35 41 35 45 0 5 6 9 13 9 6 0 22 19 35 41 14 23 43
52 67 67 25 15 45 32 45 38 0 6 10 19 21 30 12 10 25 29 30 42 5 12 17 22 27
22 10 0 27 9 36 19 10 11 31 23 47 26 27 6 56 39 51 58 -1 4 8 7 19 7 27 0 85
35 93 57 4 9 9 13 12 10 3 -3 21 3 40 14 19 10 39 19 45 19 20 0 139 61 139
71 0 5 13 9 29 9 16 0 36 7 45 15 8 8 29 15 46 15 17 0 40 5 50 10 32 17 171
40 243 40 53 0 67 3 67 15 0 11 11 15 40 15 22 0 40 4 40 9 0 13 47 16 320 18
157 1 237 -2 241 -9z m4481 -1308 c2 -6 55 -13 121 -17 64 -3 117 -10 117 -15
0 -4 36 -8 80 -8 64 0 80 -3 80 -15 0 -11 11 -15 40 -15 22 0 40 -4 40 -10 0
-5 18 -10 40 -10 29 0 40 -4 40 -15 0 -11 11 -15 40 -15 28 0 40 -4 40 -14 0
-8 -6 -16 -12 -19 -8 -2 -9 -8 -4 -13 5 -5 11 -4 13 4 7 19 23 14 45 -13 11
-14 26 -25 33 -25 24 0 35 -36 35 -114 0 -61 -3 -76 -15 -76 -11 0 -15 -11
-15 -40 l0 -40 40 0 c22 0 40 -4 40 -9 0 -5 14 -23 31 -40 17 -17 35 -31 40
-31 5 0 9 -11 9 -25 0 -22 4 -25 40 -25 36 0 40 -2 40 -25 0 -22 4 -25 40 -25
24 0 40 -5 40 -12 0 -24 51 -78 75 -78 13 0 32 -11 43 -25 11 -14 30 -25 42
-25 12 0 31 -11 42 -25 11 -14 27 -25 37 -25 16 0 36 -19 57 -56 6 -10 20 -20
32 -22 11 -2 26 -10 32 -18 7 -8 19 -14 26 -14 8 0 14 -6 14 -13 0 -16 52 -67
68 -67 7 0 12 -4 12 -9 0 -18 63 -72 77 -67 8 3 12 2 9 -3 -6 -9 60 -81 72
-80 53 8 85 -21 85 -76 0 -30 52 -89 72 -81 16 6 40 -21 49 -54 8 -32 15 -42
49 -63 15 -10 33 -29 39 -43 12 -27 28 -32 28 -9 0 8 6 12 14 9 8 -3 16 -27
19 -57 6 -53 26 -107 40 -107 4 0 7 -4 7 -9 0 -5 12 -23 28 -39 52 -56 80
-104 63 -110 -18 -6 -13 -18 29 -61 22 -22 40 -46 40 -51 0 -22 52 -91 75
-100 31 -12 33 -30 3 -30 -18 0 -15 -6 22 -40 24 -22 49 -40 56 -40 7 0 19
-18 25 -40 7 -22 18 -40 26 -40 10 0 13 -20 13 -80 0 -64 -3 -80 -15 -80 -12
0 -15 -16 -15 -80 0 -64 -3 -80 -15 -80 -12 0 -15 -20 -15 -120 0 -100 3 -120
15 -120 11 0 15 -11 15 -40 0 -29 4 -40 15 -40 11 0 15 -12 15 -49 0 -40 4
-51 19 -56 10 -3 27 -15 37 -26 16 -17 16 -22 4 -30 -13 -8 -10 -14 13 -34 18
-16 27 -34 27 -55 0 -33 42 -107 65 -117 18 -6 20 -29 3 -37 -10 -5 -10 -7 0
-12 6 -3 12 -23 12 -44 0 -30 7 -46 31 -69 17 -17 35 -31 40 -31 5 0 9 -18 9
-40 0 -29 4 -40 15 -40 13 0 15 -20 15 -120 0 -100 -2 -120 -15 -120 -12 0
-15 -20 -15 -120 l0 -120 -25 0 c-22 0 -25 -4 -25 -38 0 -21 -7 -47 -15 -58
-8 -10 -15 -29 -15 -41 0 -13 -4 -23 -9 -23 -12 0 -71 -59 -71 -71 0 -5 -18
-9 -40 -9 -38 0 -40 -2 -40 -30 l0 -30 -80 0 -80 0 0 -50 0 -50 40 0 c29 0 40
-4 40 -15 0 -11 -11 -15 -40 -15 -29 0 -40 4 -40 15 0 8 -7 15 -15 15 -11 0
-15 11 -15 40 0 36 -2 40 -25 40 -22 0 -25 4 -25 40 0 38 -2 40 -30 40 -28 0
-30 2 -30 40 0 22 -4 40 -10 40 -5 0 -10 -7 -10 -15 0 -8 -4 -15 -10 -15 -9 0
-14 14 -11 33 2 13 -41 97 -50 97 -5 0 -9 6 -9 14 0 8 -11 38 -25 68 -14 30
-25 71 -25 96 0 31 -4 42 -15 42 -11 0 -15 11 -15 40 0 22 -4 40 -8 40 -5 0
-13 42 -20 93 -10 88 -28 147 -44 147 -5 0 -8 24 -8 54 0 34 -5 58 -14 65 -8
7 -18 27 -22 44 -7 33 -24 68 -37 78 -4 3 -9 29 -9 58 -1 29 -7 56 -15 62 -8
7 -13 34 -13 72 0 61 -17 97 -46 97 -6 0 -21 16 -33 35 -11 19 -32 40 -46 45
-14 5 -25 14 -25 20 0 5 -10 10 -22 10 -14 0 -38 16 -61 40 -38 41 -64 49 -85
28 -9 -9 -12 -9 -12 0 0 7 -9 12 -20 12 -13 0 -20 7 -20 20 0 22 -41 94 -61
105 -6 4 -15 1 -20 -6 -7 -11 -15 -7 -39 18 -16 17 -37 30 -46 29 -16 -3 -74
48 -74 65 0 5 -6 9 -12 9 -21 1 -68 71 -68 102 0 26 -3 28 -40 28 -28 0 -40 4
-40 14 0 8 6 17 13 20 9 5 8 8 -3 13 -8 3 -27 19 -42 34 -22 21 -28 37 -28 68
0 23 -4 41 -10 41 -5 0 -10 -11 -10 -25 0 -14 -4 -25 -9 -25 -5 0 -18 11 -29
25 -23 29 -39 32 -44 8 -3 -14 -8 -11 -20 13 -24 45 -47 62 -59 43 -8 -11 -14
-9 -33 13 -13 15 -27 33 -30 40 -5 10 -7 10 -12 1 -9 -20 -24 -15 -46 12 -11
14 -26 25 -34 25 -8 0 -17 7 -20 15 -4 8 -13 15 -21 15 -17 0 -33 16 -52 53
-8 15 -20 27 -28 27 -18 0 -73 50 -73 67 0 8 -11 25 -25 39 -14 14 -25 31 -25
39 0 8 -7 15 -15 15 -29 0 -56 89 -63 210 -6 89 -10 114 -21 112 -11 -2 -12
16 -8 95 6 105 -29 453 -46 464 -5 4 -6 39 -2 83 7 73 7 76 -14 76 -21 0 -21
4 -21 160 0 136 2 160 15 160 12 0 15 -16 15 -80 0 -44 4 -80 8 -80 5 0 9 54
9 120 0 66 -4 120 -9 120 -4 0 -8 -8 -8 -17 0 -10 -9 -29 -20 -43 l-20 -25
-20 25 c-11 14 -20 33 -20 43 0 9 -7 17 -15 17 -11 0 -15 11 -15 40 0 36 -2
40 -25 40 -17 0 -25 -6 -25 -17 0 -14 -2 -15 -12 -4 -10 11 -10 14 0 18 19 7
14 22 -15 48 -23 20 -26 26 -13 34 12 8 12 13 -4 30 -25 28 -36 26 -36 -4 0
-16 -6 -25 -15 -25 -11 0 -15 11 -15 40 0 29 -4 40 -15 40 -11 0 -15 11 -15
40 0 29 4 40 15 40 11 0 15 11 15 40 0 28 4 40 14 40 8 0 16 -5 18 -10z m492
-35 c-4 -8 -8 -15 -10 -15 -2 0 -4 7 -4 15 0 8 4 15 10 15 5 0 7 -7 4 -15z
m334 -183 c2 -7 -3 -12 -12 -12 -9 0 -16 7 -16 16 0 17 22 14 28 -4z m1732
-4107 c0 -11 -11 -15 -40 -15 -29 0 -40 4 -40 15 0 11 11 15 40 15 29 0 40 -4
40 -15z m-240 -505 c0 -29 -4 -40 -15 -40 -11 0 -15 11 -15 40 0 29 4 40 15
40 11 0 15 -11 15 -40z m110 -80 c0 -29 -4 -40 -15 -40 -8 0 -15 -7 -15 -15 0
-11 -11 -15 -40 -15 -29 0 -40 4 -40 15 0 11 11 15 40 15 l40 0 0 40 c0 29 4
40 15 40 11 0 15 -11 15 -40z m-6477 -997 c-7 -2 -21 -2 -30 0 -10 3 -4 5 12
5 17 0 24 -2 18 -5z m332 -14 c59 -9 -74 -9 -190 1 l-90 7 120 0 c66 -1 138
-4 160 -8z m3169 -1324 c54 -55 87 -105 69 -105 -9 0 -93 63 -93 70 0 4 -11
20 -25 36 -14 16 -25 35 -25 42 0 7 -4 10 -10 7 -5 -3 -10 -1 -10 4 0 27 36 6
94 -54z m-8297 -1074 c-13 -16 -28 -27 -32 -23 -5 4 -5 -1 -2 -11 4 -11 3 -16
-3 -12 -9 5 -14 -7 -11 -27 0 -4 -8 -6 -19 -5 -22 1 -22 1 54 84 37 40 48 35
13 -6z m-87 -95 c0 -2 -7 -9 -15 -16 -13 -11 -14 -10 -9 4 5 14 24 23 24 12z
m9228 -437 c18 -57 8 -61 -11 -5 -9 26 -13 46 -9 46 4 0 13 -19 20 -41z m61
-199 c0 -10 -3 -8 -9 5 -12 27 -12 43 0 25 5 -8 9 -22 9 -30z m44 -147 c14
-49 30 -104 33 -123 4 -19 10 -39 14 -45 23 -31 83 -264 78 -301 l-4 -29 -13
30 c-19 43 -91 306 -91 333 0 13 -7 37 -16 53 -8 17 -13 33 -11 36 3 2 -3 34
-13 69 -26 96 -9 77 23 -23z m1994 -195 c-3 -8 -6 -5 -6 6 -1 11 2 17 5 13 3
-3 4 -12 1 -19z m-1857 -323 c0 -8 -4 -15 -10 -15 -5 0 -10 7 -10 15 0 8 5 15
10 15 6 0 10 -7 10 -15z m1748 -575 c-7 -10 -14 -18 -15 -16 -6 6 9 36 18 36
5 0 4 -9 -3 -20z m-1678 -1044 c0 -9 -30 -14 -35 -6 -4 6 3 10 14 10 12 0 21
-2 21 -4z m-4723 -3172 c-3 -3 -12 -4 -19 -1 -8 3 -5 6 6 6 11 1 17 -2 13 -5z
m1120 -10 c-3 -3 -12 -4 -19 -1 -8 3 -5 6 6 6 11 1 17 -2 13 -5z m-948 -20 c2
-2 -12 -4 -32 -4 -20 0 -38 4 -42 9 -5 9 64 4 74 -5z m854 9 c-7 -2 -19 -2
-25 0 -7 3 -2 5 12 5 14 0 19 -2 13 -5z m-1163 -13 c-20 -13 -40 -13 -40 0 0
6 12 10 28 10 21 0 24 -2 12 -10z m1070 0 c-75 -16 -100 -19 -100 -10 0 12 26
18 85 18 47 0 48 0 15 -8z m-185 -9 l70 -6 -109 -8 c-135 -9 -267 -8 -326 2
-28 5 13 7 110 5 96 -2 140 0 115 5 -40 8 -39 8 15 8 30 0 87 -2 125 -6z m505
-1 c0 -5 -4 -10 -10 -10 -5 0 -10 5 -10 10 0 6 5 10 10 10 6 0 10 -4 10 -10z
m-1353 -6 c-3 -3 -12 -4 -19 -1 -8 3 -5 6 6 6 11 1 17 -2 13 -5z m1308 -4 c-3
-5 -14 -10 -23 -10 -15 0 -15 2 -2 10 20 13 33 13 25 0z m-1060 -20 c61 -5
198 -12 305 -15 107 -3 231 -7 275 -9 49 -3 72 -1 60 4 -13 6 12 9 75 11 52 1
106 4 120 6 14 1 56 7 94 13 64 9 87 7 74 -5 -2 -3 -22 -7 -44 -9 -21 -2 -46
-6 -54 -9 -43 -17 -508 -53 -542 -43 -7 3 -76 7 -153 11 -77 3 -171 12 -210
20 -38 7 -100 17 -138 20 -37 4 -70 12 -74 18 -4 7 11 8 48 3 30 -4 104 -11
164 -16z m-316 -26 c2 -2 -10 -4 -27 -4 -18 0 -32 5 -32 10 0 9 47 4 59 -6z
m199 -23 c2 -7 42 -11 116 -11 62 0 117 -5 122 -10 14 -14 488 -14 659 1 77 7
156 12 175 11 22 -1 30 1 22 7 -13 8 88 22 153 20 28 0 29 -1 7 -9 -27 -11
-217 -47 -287 -54 -212 -22 -353 -28 -540 -23 -199 6 -435 31 -527 57 -21 6
-44 10 -50 9 -7 -1 -22 0 -33 1 -17 2 -16 3 5 10 37 11 174 4 178 -9z m-958
-33 c0 -5 13 -8 29 -8 17 0 32 -4 35 -9 7 -10 79 -23 124 -22 17 1 32 -4 32
-10 0 -8 15 -9 48 -4 60 10 86 9 90 -5 2 -5 19 -10 37 -10 39 0 56 -17 23 -23
-14 -3 -8 -5 17 -6 22 -1 58 -4 80 -7 22 -2 72 -6 110 -9 39 -3 79 -10 90 -15
22 -10 142 -27 285 -41 127 -13 729 -18 855 -8 170 14 339 31 363 36 12 3 22
0 22 -6 0 -6 -14 -11 -32 -11 -17 0 -29 -3 -26 -6 8 -8 101 -7 138 1 24 5 31
4 28 -6 -5 -14 -77 -34 -283 -80 -193 -43 -217 -48 -232 -42 -7 3 -13 1 -13
-4 0 -10 -51 -16 -215 -29 -38 -3 -76 -7 -83 -10 -24 -7 -372 17 -515 36 -303
40 -691 139 -862 221 -27 13 -54 24 -60 24 -5 0 -21 8 -35 17 -14 9 -40 19
-57 23 -40 8 -50 20 -17 20 13 0 24 -3 24 -7z m2397 -154 c-3 -3 -12 -4 -19
-1 -8 3 -5 6 6 6 11 1 17 -2 13 -5z m-4125 -121 c2 -5 17 -16 33 -25 33 -18
53 -43 43 -54 -10 -10 -78 35 -78 52 0 8 -4 14 -10 14 -5 0 -10 5 -10 10 0 12
17 14 22 3z m506 -482 c3 -8 -1 -12 -9 -9 -7 2 -15 10 -17 17 -3 8 1 12 9 9 7
-2 15 -10 17 -17z m105 -65 c31 -16 57 -33 57 -38 0 -4 6 -8 13 -8 6 0 50 -23
96 -50 46 -28 88 -50 93 -50 4 0 8 -5 8 -10 0 -6 8 -13 18 -16 22 -8 185 -87
192 -94 3 -3 21 -13 40 -23 19 -11 46 -25 60 -32 30 -16 124 -56 140 -59 3 -1
19 -6 35 -13 17 -6 43 -14 58 -17 15 -4 25 -11 22 -16 -4 -6 7 -10 22 -10 16
0 38 -7 49 -15 10 -8 26 -15 35 -15 9 0 30 -7 45 -15 16 -8 41 -15 55 -15 14
0 52 -11 85 -24 34 -13 82 -26 107 -30 26 -4 47 -11 47 -17 0 -5 20 -9 44 -9
23 0 56 -4 72 -10 16 -5 63 -14 104 -19 41 -6 98 -15 125 -21 101 -22 161 -29
192 -24 17 3 37 3 43 -1 7 -4 44 -9 83 -11 40 -2 79 -4 87 -5 8 -1 35 -1 60 0
33 1 41 4 30 11 -10 6 12 8 65 4 44 -3 123 -1 175 5 52 6 131 14 175 17 44 3
96 9 115 14 19 6 58 10 87 10 28 0 63 4 76 9 27 10 121 24 100 15 -20 -9 -15
-24 7 -24 13 0 18 5 14 15 -4 9 0 15 10 15 9 0 16 4 16 9 0 6 14 6 35 0 27 -8
43 -6 67 5 85 40 309 83 293 56 -3 -5 -19 -10 -34 -10 -15 0 -31 -4 -36 -8
-16 -14 -144 -45 -160 -38 -19 7 -47 -3 -40 -15 3 -4 -11 -11 -32 -14 -36 -5
-58 -10 -158 -36 -22 -6 -65 -15 -95 -19 -30 -4 -93 -15 -139 -24 -136 -25
-517 -50 -571 -36 -25 6 -52 10 -60 9 -8 -1 -87 -1 -175 -1 -190 2 -335 15
-465 42 -52 11 -131 27 -175 36 -44 8 -116 26 -160 39 -44 13 -93 27 -110 31
-16 4 -35 11 -42 16 -7 5 -18 6 -24 2 -8 -4 -9 -3 -5 4 4 8 0 12 -11 12 -20 0
-101 30 -183 67 -120 55 -387 188 -425 212 -22 14 -51 32 -65 39 -35 19 -108
72 -142 105 -16 15 -32 27 -34 27 -3 0 -19 16 -37 35 -17 19 -38 35 -44 35 -7
0 -13 2 -13 4 0 2 -3 12 -6 20 -7 19 0 16 89 -28z m4397 -73 c0 -15 -121 -86
-172 -100 -29 -9 -57 -19 -63 -23 -5 -5 -28 -11 -50 -15 l-40 -7 49 36 c27 19
65 40 85 47 20 6 40 15 46 20 5 5 18 9 30 9 11 0 38 9 60 19 45 22 55 24 55
14z m-643 -279 c-3 -3 -12 -4 -19 -1 -8 3 -5 6 6 6 11 1 17 -2 13 -5z m-192
-65 c10 -14 1 -21 -19 -13 -9 3 -13 10 -10 15 7 12 21 11 29 -2z m-53 -6 c-6
-2 -10 -9 -6 -14 3 -5 -3 -12 -13 -15 -10 -3 -27 -10 -38 -14 -47 -20 -87 -29
-100 -24 -23 9 -7 24 26 24 29 0 39 3 94 33 17 9 35 16 40 16 6 0 4 -3 -3 -6z"/>
<path d="M18563 37740 c0 -25 2 -35 4 -22 2 12 2 32 0 45 -2 12 -4 2 -4 -23z"/>
<path d="M17680 37550 c0 -5 18 -10 40 -10 22 0 40 5 40 10 0 6 -18 10 -40 10
-22 0 -40 -4 -40 -10z"/>
<path d="M31840 37285 c0 -11 11 -15 40 -15 29 0 40 4 40 15 0 11 -11 15 -40
15 -29 0 -40 -4 -40 -15z"/>
<path d="M32323 37020 c0 -25 2 -35 4 -22 2 12 2 32 0 45 -2 12 -4 2 -4 -23z"/>
<path d="M29920 36405 c0 -11 11 -15 40 -15 29 0 40 4 40 15 0 11 -11 15 -40
15 -29 0 -40 -4 -40 -15z"/>
<path d="M32860 36411 c0 -6 5 -13 10 -16 6 -3 10 1 10 9 0 9 -4 16 -10 16 -5
0 -10 -4 -10 -9z"/>
<path d="M29120 35755 c0 -30 11 -32 33 -7 23 25 21 32 -8 32 -20 0 -25 -5
-25 -25z"/>
<path d="M29113 35580 c0 -25 2 -35 4 -22 2 12 2 32 0 45 -2 12 -4 2 -4 -23z"/>
<path d="M29043 35420 c0 -25 2 -35 4 -22 2 12 2 32 0 45 -2 12 -4 2 -4 -23z"/>
<path d="M29280 34995 c0 -11 11 -15 40 -15 29 0 40 4 40 15 0 11 -11 15 -40
15 -29 0 -40 -4 -40 -15z"/>
<path d="M16060 31180 c0 -22 5 -40 10 -40 6 0 10 18 10 40 0 22 -4 40 -10 40
-5 0 -10 -18 -10 -40z"/>
<path d="M20460 30990 c0 -5 5 -10 10 -10 6 0 10 5 10 10 0 6 -4 10 -10 10 -5
0 -10 -4 -10 -10z"/>
<path d="M17282 29320 c0 -14 2 -19 5 -12 2 6 2 18 0 25 -3 6 -5 1 -5 -13z"/>
<path d="M17360 28810 c0 -5 5 -10 10 -10 6 0 10 5 10 10 0 6 -4 10 -10 10 -5
0 -10 -4 -10 -10z"/>
<path d="M22380 28170 c0 -5 5 -10 10 -10 6 0 10 5 10 10 0 6 -4 10 -10 10 -5
0 -10 -4 -10 -10z"/>
<path d="M19840 27870 c0 -5 5 -10 10 -10 6 0 10 5 10 10 0 6 -4 10 -10 10 -5
0 -10 -4 -10 -10z"/>
<path d="M22880 31550 c0 -5 5 -10 10 -10 6 0 10 5 10 10 0 6 -4 10 -10 10 -5
0 -10 -4 -10 -10z"/>
<path d="M23033 31340 c0 -25 2 -35 4 -22 2 12 2 32 0 45 -2 12 -4 2 -4 -23z"/>
<path d="M19818 17223 c7 -3 16 -2 19 1 4 3 -2 6 -13 5 -11 0 -14 -3 -6 -6z"/>
<path d="M18000 17120 c0 -5 7 -10 15 -10 8 0 15 5 15 10 0 6 -7 10 -15 10 -8
0 -15 -4 -15 -10z"/>
</g>
</svg>
