<svg xmlns="http://www.w3.org/2000/svg" xmlns:xlink="http://www.w3.org/1999/xlink" width="1920" zoomAndPan="magnify" viewBox="0 0 1440 809.999993" height="1080" preserveAspectRatio="xMidYMid meet" version="1.0"><defs><g/><clipPath id="b8a882f3eb"><path d="M 0.398438 0.160156 L 1243.121094 0.160156 L 1243.121094 461.921875 L 0.398438 461.921875 Z M 0.398438 0.160156 " clip-rule="nonzero"/></clipPath><clipPath id="3a4c8bff8e"><path d="M 1 1 L 1243 1 L 1243 461.921875 L 1 461.921875 Z M 1 1 " clip-rule="nonzero"/></clipPath><clipPath id="726d9f39cd"><rect x="0" width="1244" y="0" height="462"/></clipPath><clipPath id="2f0d9176b7"><rect x="0" width="1244" y="0" height="462"/></clipPath></defs><rect x="-144" width="1728" fill="#ffffff" y="-80.999999" height="971.999992" fill-opacity="1"/><g transform="matrix(1, 0, 0, 1, 98, 62)"><g clip-path="url(#2f0d9176b7)"><g clip-path="url(#b8a882f3eb)"><g transform="matrix(1, 0, 0, 1, 0.000000000000014211, 0.000000000000035527)"><g clip-path="url(#726d9f39cd)"><g clip-path="url(#3a4c8bff8e)"><path fill="#e4e2dd" d="M 47.109375 1.277344 L 1196.871094 1.277344 C 1209.085938 1.277344 1220.800781 6.132812 1229.4375 14.769531 C 1238.074219 23.40625 1242.925781 35.121094 1242.925781 47.335938 L 1242.925781 415.789062 C 1242.925781 428.003906 1238.074219 439.71875 1229.4375 448.355469 C 1220.800781 456.992188 1209.085938 461.847656 1196.871094 461.847656 L 47.109375 461.847656 C 21.675781 461.847656 1.054688 441.226562 1.054688 415.789062 L 1.054688 47.335938 C 1.054688 21.898438 21.675781 1.277344 47.109375 1.277344 Z M 47.109375 1.277344 " fill-opacity="1" fill-rule="nonzero"/></g><g fill="#e05d09" fill-opacity="1"><g transform="translate(120.821531, 325.563679)"><g><path d="M 9.6875 -186.421875 C 9.863281 -186.972656 10 -187.476562 10.09375 -187.9375 C 10.1875 -188.40625 10.328125 -188.820312 10.515625 -189.1875 L -19.921875 -189.1875 C -19.546875 -189.738281 -19.171875 -190.242188 -18.796875 -190.703125 C -18.429688 -191.171875 -18.066406 -191.585938 -17.703125 -191.953125 L 14.390625 -191.953125 C 15.859375 -193.054688 17.421875 -193.609375 19.078125 -193.609375 L 74.40625 -193.609375 C 76.4375 -193.609375 78.003906 -193.054688 79.109375 -191.953125 L 47.015625 -191.953125 C 47.390625 -191.585938 47.804688 -191.171875 48.265625 -190.703125 C 48.722656 -190.242188 49.046875 -189.738281 49.234375 -189.1875 L 79.375 -189.1875 C 79.75 -188.082031 79.9375 -187.160156 79.9375 -186.421875 L 95.421875 -186.421875 C 95.609375 -186.421875 95.703125 -186.375 95.703125 -186.28125 C 95.703125 -186.1875 95.703125 -186.140625 95.703125 -186.140625 L 95.703125 -183.65625 L 58.359375 -183.65625 L 58.359375 -178.125 L 73.84375 -178.125 L 73.84375 -173.984375 L 72.1875 -173.984375 L 72.1875 -168.453125 L 62.234375 -168.453125 L 62.234375 -162.90625 L 84.640625 -162.90625 L 84.640625 -161.53125 L 86.296875 -161.53125 L 86.296875 -156 L 87.40625 -156 L 87.40625 -150.46875 L 85.46875 -150.46875 L 85.46875 -144.9375 L 84.078125 -144.9375 L 84.078125 -138.015625 L 88.78125 -138.015625 L 88.78125 -132.484375 L 83.53125 -132.484375 L 83.53125 -126.953125 L 84.640625 -126.953125 L 84.640625 -125.578125 L 104.28125 -125.578125 L 104.28125 -120.046875 L 114.515625 -120.046875 L 114.515625 -117.28125 L 71.921875 -117.28125 L 71.921875 -114.515625 L 86.015625 -114.515625 L 86.015625 -108.984375 L 74.40625 -108.984375 L 74.40625 -103.453125 L 84.359375 -103.453125 L 84.359375 -100.6875 L 86.296875 -100.6875 L 86.296875 -96.53125 L 123.359375 -96.53125 L 123.359375 -93.765625 L 149.078125 -93.765625 L 149.078125 -88.234375 L 78.828125 -88.234375 L 78.828125 -93.765625 L 53.109375 -93.765625 L 53.109375 -96.53125 L 16.046875 -96.53125 L 16.046875 -100.6875 L 14.109375 -100.6875 L 14.109375 -103.453125 L 4.15625 -103.453125 L 4.15625 -108.984375 L 15.765625 -108.984375 L 15.765625 -114.515625 L 1.65625 -114.515625 L 1.65625 -117.28125 L 44.25 -117.28125 L 44.25 -120.046875 L 34.015625 -120.046875 L 34.015625 -125.578125 L 14.390625 -125.578125 L 14.390625 -126.953125 L 13.28125 -126.953125 L 13.28125 -132.484375 L 18.53125 -132.484375 L 18.53125 -138.015625 L 13.828125 -138.015625 L 13.828125 -144.9375 L 15.21875 -144.9375 L 15.21875 -150.46875 L 17.15625 -150.46875 L 17.15625 -156 L 16.046875 -156 L 16.046875 -161.53125 L 14.390625 -161.53125 L 14.390625 -162.90625 L -8.015625 -162.90625 L -8.015625 -168.453125 L 1.9375 -168.453125 L 1.9375 -173.984375 L 3.59375 -173.984375 L 3.59375 -178.125 L -11.890625 -178.125 L -11.890625 -183.65625 L 25.453125 -183.65625 L 25.453125 -186.421875 Z M 193.609375 -37.0625 L 118.109375 -37.0625 L 118.109375 -35.6875 L 123.640625 -35.6875 L 123.640625 -31.53125 L 162.90625 -31.53125 L 162.90625 -30.15625 L 150.75 -30.15625 L 150.75 -24.609375 L 170.109375 -24.609375 L 170.109375 -20.46875 L 172.875 -20.46875 L 172.875 -19.078125 L 170.9375 -19.078125 L 170.9375 -17.703125 L 170.109375 -17.703125 L 170.109375 -12.171875 L 170.65625 -12.171875 L 170.65625 -8.015625 L 169.546875 -8.015625 L 169.546875 -6.640625 L 168.171875 -6.640625 C 167.984375 -6.265625 167.890625 -5.800781 167.890625 -5.25 L 170.9375 -5.25 C 170.382812 -3.40625 169.367188 -2.023438 167.890625 -1.109375 L 164.84375 -1.109375 C 163.925781 -0.367188 162.640625 0 160.984375 0 L 21.578125 0 C 19.910156 0 18.617188 -0.367188 17.703125 -1.109375 L 20.46875 -1.109375 C 18.8125 -2.023438 17.707031 -3.40625 17.15625 -5.25 L 14.109375 -5.25 C 14.109375 -5.625 14.0625 -5.898438 13.96875 -6.078125 C 13.875 -6.265625 13.828125 -6.453125 13.828125 -6.640625 L 15.21875 -6.640625 L 15.21875 -8.015625 L 16.3125 -8.015625 L 16.3125 -12.171875 L 15.765625 -12.171875 L 15.765625 -17.703125 L 16.59375 -17.703125 L 16.59375 -19.078125 L 18.53125 -19.078125 L 18.53125 -20.46875 L 15.765625 -20.46875 L 15.765625 -24.609375 L -3.59375 -24.609375 L -3.59375 -30.15625 L 8.578125 -30.15625 L 8.578125 -31.53125 L -30.703125 -31.53125 L -30.703125 -35.6875 L -36.234375 -35.6875 L -36.234375 -37.0625 L 39.28125 -37.0625 L 39.28125 -41.21875 L 8.578125 -41.21875 L 8.578125 -45.359375 L 38.453125 -45.359375 L 38.453125 -46.75 L -26.828125 -46.75 L -26.828125 -50.890625 L -17.421875 -50.890625 L -17.421875 -52.28125 L 18.53125 -52.28125 L 18.53125 -53.65625 L 5.8125 -53.65625 L 5.8125 -57.8125 L 27.375 -57.8125 L 27.375 -63.34375 L 5.53125 -63.34375 L 5.53125 -66.109375 L 23.515625 -66.109375 L 23.515625 -67.484375 L 15.21875 -67.484375 L 15.21875 -71.640625 L 23.234375 -71.640625 L 23.234375 -74.40625 L 13 -74.40625 L 13 -77.171875 L 37.0625 -77.171875 L 37.0625 -81.3125 L 43.984375 -81.3125 L 43.984375 -84.078125 L 6.078125 -84.078125 L 6.078125 -88.234375 L 76.34375 -88.234375 L 76.34375 -84.078125 L 114.234375 -84.078125 L 114.234375 -81.3125 L 107.3125 -81.3125 L 107.3125 -77.171875 L 83.25 -77.171875 L 83.25 -74.40625 L 93.484375 -74.40625 L 93.484375 -71.640625 L 85.46875 -71.640625 L 85.46875 -67.484375 L 93.765625 -67.484375 L 93.765625 -66.109375 L 75.78125 -66.109375 L 75.78125 -63.34375 L 97.640625 -63.34375 L 97.640625 -57.8125 L 76.0625 -57.8125 L 76.0625 -56.703125 L 152.6875 -56.703125 C 155.257812 -56.703125 157.285156 -55.6875 158.765625 -53.65625 L 171.484375 -53.65625 L 172.3125 -52.28125 L 136.359375 -52.28125 L 136.90625 -50.890625 L 127.234375 -50.890625 C 127.421875 -50.523438 127.515625 -49.972656 127.515625 -49.234375 L 127.515625 -46.75 L 192.78125 -46.75 L 192.78125 -45.359375 L 162.90625 -45.359375 L 162.90625 -41.21875 L 193.609375 -41.21875 Z M 193.609375 -37.0625 "/></g></g></g><g fill="#e05d09" fill-opacity="1"><g transform="translate(267.960982, 325.563679)"><g><path d="M 190.015625 -48.125 L 211.875 -48.125 L 211.875 -43.984375 L 169.828125 -43.984375 L 169.828125 -38.453125 L 196.9375 -38.453125 L 196.9375 -32.921875 L 173.140625 -32.921875 L 173.140625 -27.375 L 176.1875 -27.375 L 176.1875 -23.234375 L 174.25 -23.234375 L 174.25 -20.46875 L 168.453125 -20.46875 L 168.453125 -17.703125 L 168.171875 -17.703125 L 168.171875 -14.9375 L 173.984375 -14.9375 L 173.984375 -9.40625 L 182 -9.40625 L 182 -7.46875 C 182 -7.101562 181.90625 -6.828125 181.71875 -6.640625 L 132.484375 -6.640625 C 132.304688 -6.265625 132.21875 -5.800781 132.21875 -5.25 L 151.296875 -5.25 C 150.742188 -3.40625 149.726562 -2.023438 148.25 -1.109375 L 143 -1.109375 C 142.070312 -0.367188 140.78125 0 139.125 0 L -4.984375 0 C -6.453125 0 -7.832031 -0.367188 -9.125 -1.109375 L -3.875 -1.109375 C -5.164062 -2.023438 -6.179688 -3.40625 -6.921875 -5.25 L -26.28125 -5.25 C -26.457031 -5.625 -26.546875 -6.085938 -26.546875 -6.640625 L 22.953125 -6.640625 L 22.953125 -9.40625 L 14.9375 -9.40625 L 14.9375 -14.9375 L 9.125 -14.9375 L 9.125 -17.703125 L 9.40625 -17.703125 L 9.40625 -20.46875 L 15.21875 -20.46875 L 15.21875 -23.234375 L 17.15625 -23.234375 L 17.15625 -27.375 L 14.109375 -27.375 L 14.109375 -32.921875 L 37.890625 -32.921875 L 37.890625 -38.453125 L 10.78125 -38.453125 L 10.78125 -43.984375 L 52.828125 -43.984375 L 52.828125 -48.125 L 30.984375 -48.125 L 30.984375 -50.890625 L 37.34375 -50.890625 L 37.34375 -53.65625 L 40.109375 -53.65625 L 40.109375 -56.421875 L 9.40625 -56.421875 L 9.40625 -59.1875 L 2.21875 -59.1875 L 2.21875 -63.34375 L 27.9375 -63.34375 L 27.9375 -64.71875 L 7.46875 -64.71875 L 7.46875 -67.484375 L 13.546875 -67.484375 L 13.546875 -70.25 L 17.984375 -70.25 L 17.984375 -74.40625 L 17.421875 -74.40625 L 17.421875 -79.9375 L 14.65625 -79.9375 L 14.65625 -85.46875 L 10.515625 -85.46875 L 10.515625 -88.234375 L 13.828125 -88.234375 L 13.828125 -93.765625 L 10.78125 -93.765625 L 10.78125 -96.53125 L 15.21875 -96.53125 L 15.21875 -100.6875 L 16.3125 -100.6875 L 16.3125 -104.828125 L 21.296875 -104.828125 L 21.296875 -106.21875 L 16.59375 -106.21875 L 16.59375 -111.75 L 12.453125 -111.75 L 12.453125 -115.890625 L 13.546875 -115.890625 L 13.546875 -120.046875 L 14.109375 -120.046875 L 14.109375 -125.578125 L 18.25 -125.578125 L 18.25 -131.109375 L 12.171875 -131.109375 L 12.171875 -136.640625 L 13 -136.640625 L 13 -142.171875 L 20.75 -142.171875 L 20.75 -146.3125 L 16.59375 -146.3125 L 16.59375 -150.46875 L 14.390625 -150.46875 L 14.390625 -151.84375 L 26 -151.84375 L 26 -156 L 46.46875 -156 L 46.46875 -158.765625 L 38.171875 -158.765625 L 38.171875 -161.53125 L 11.34375 -161.53125 L 11.34375 -162.90625 L 14.390625 -162.90625 L 14.390625 -167.0625 L 14.65625 -167.0625 L 14.65625 -171.21875 L 15.484375 -171.21875 L 15.484375 -176.75 L 15.21875 -176.75 L 15.21875 -183.65625 L 14.65625 -183.65625 L 14.65625 -186.140625 C 14.65625 -186.878906 14.75 -187.4375 14.9375 -187.8125 L 12.171875 -187.8125 C 12.910156 -191.675781 15.304688 -193.609375 19.359375 -193.609375 L 161.25 -193.609375 C 165.488281 -193.609375 167.890625 -191.675781 168.453125 -187.8125 L 171.21875 -187.8125 C 171.394531 -187.4375 171.484375 -186.878906 171.484375 -186.140625 L 171.484375 -183.65625 L 172.046875 -183.65625 L 172.046875 -176.75 L 172.3125 -176.75 L 172.3125 -171.21875 L 171.484375 -171.21875 L 171.484375 -167.0625 L 171.21875 -167.0625 L 171.21875 -162.90625 L 168.171875 -162.90625 L 168.171875 -161.53125 L 195 -161.53125 L 195 -158.765625 L 203.296875 -158.765625 L 203.296875 -156 L 182.828125 -156 L 182.828125 -151.84375 L 171.21875 -151.84375 L 171.21875 -150.46875 L 173.421875 -150.46875 L 173.421875 -146.3125 L 177.578125 -146.3125 C 177.203125 -144.46875 176.554688 -143.085938 175.640625 -142.171875 L 167.890625 -142.171875 C 166.597656 -140.515625 164.753906 -139.6875 162.359375 -139.6875 L 79.375 -139.6875 L 79.375 -136.640625 L 78.546875 -136.640625 L 78.546875 -131.109375 L 84.640625 -131.109375 L 84.640625 -125.578125 L 80.484375 -125.578125 L 80.484375 -122.25 L 157.375 -122.25 C 159.40625 -122.25 161.160156 -121.515625 162.640625 -120.046875 L 162.078125 -120.046875 C 163.003906 -119.117188 163.648438 -117.734375 164.015625 -115.890625 L 163.1875 -115.890625 L 163.1875 -111.75 L 167.34375 -111.75 L 167.34375 -106.21875 L 172.046875 -106.21875 L 172.046875 -104.828125 L 167.0625 -104.828125 L 167.0625 -100.6875 L 165.953125 -100.6875 L 165.953125 -96.53125 L 161.53125 -96.53125 L 161.53125 -93.765625 L 164.578125 -93.765625 L 164.578125 -88.234375 L 161.25 -88.234375 L 161.25 -85.46875 L 165.40625 -85.46875 L 165.40625 -79.9375 L 168.171875 -79.9375 L 168.171875 -78.828125 C 168.171875 -76.796875 167.707031 -75.320312 166.78125 -74.40625 L 167.34375 -74.40625 C 165.863281 -72.375 163.832031 -71.359375 161.25 -71.359375 L 84.359375 -71.359375 L 84.359375 -70.25 L 79.9375 -70.25 L 79.9375 -67.484375 L 73.84375 -67.484375 L 73.84375 -64.71875 L 94.3125 -64.71875 L 94.3125 -63.34375 L 68.59375 -63.34375 L 68.59375 -59.1875 L 75.78125 -59.1875 L 75.78125 -56.421875 L 106.484375 -56.421875 L 106.484375 -53.9375 L 191.671875 -53.9375 C 192.597656 -53.9375 193.335938 -53.84375 193.890625 -53.65625 L 190.84375 -53.65625 C 192.6875 -53.101562 194.070312 -52.179688 195 -50.890625 L 188.640625 -50.890625 C 189.378906 -49.785156 189.835938 -48.863281 190.015625 -48.125 Z M 190.015625 -48.125 "/></g></g></g><g fill="#e05d09" fill-opacity="1"><g transform="translate(426.440255, 325.563679)"><g><path d="M 215.46875 -14.9375 L 216.84375 -14.9375 L 216.84375 -12.171875 L 209.65625 -12.171875 L 209.65625 -6.640625 L 191.40625 -6.640625 C 191.40625 -5.898438 191.21875 -5.160156 190.84375 -4.421875 C 190.476562 -3.679688 190.113281 -3.035156 189.75 -2.484375 L 180.34375 -2.484375 C 179.601562 -1.753906 179.046875 -1.296875 178.671875 -1.109375 L 189.75 -1.109375 C 188.820312 -0.367188 187.53125 0 185.875 0 L 142.171875 0 C 141.066406 0 140.050781 -0.132812 139.125 -0.40625 C 138.207031 -0.6875 137.378906 -0.921875 136.640625 -1.109375 L 125.296875 -1.109375 C 124.554688 -1.472656 123.816406 -1.929688 123.078125 -2.484375 L 132.484375 -2.484375 C 131.566406 -3.222656 130.832031 -3.960938 130.28125 -4.703125 C 129.726562 -5.441406 129.265625 -5.992188 128.890625 -6.359375 L 128.890625 -6.640625 L 146.875 -6.640625 L 143.28125 -12.171875 L 150.46875 -12.171875 L 148.53125 -14.9375 L 147.140625 -14.9375 L 144.375 -19.078125 L 112.578125 -19.078125 L 108.703125 -24.609375 L 112.84375 -24.609375 L 109.25 -30.15625 L 99.578125 -30.15625 L 98.46875 -31.53125 L 111.1875 -31.53125 L 108.421875 -35.6875 L 114.234375 -35.6875 L 111.46875 -39.828125 L 100.125 -39.828125 L 96.53125 -45.359375 L 113.953125 -45.359375 L 113.125 -46.75 L 104 -46.75 L 102.34375 -49.515625 L 93.765625 -49.515625 L 90.171875 -55.046875 L 85.46875 -55.046875 L 84.640625 -56.421875 L 97.359375 -56.421875 L 94.59375 -60.578125 L 80.21875 -60.578125 L 80.21875 -56.421875 L 66.375 -56.421875 L 66.375 -55.046875 L 85.1875 -55.046875 L 85.1875 -49.515625 L 87.953125 -49.515625 L 87.953125 -46.75 L 88.234375 -46.75 L 88.234375 -45.359375 L 80.21875 -45.359375 L 80.21875 -39.828125 L 67.21875 -39.828125 L 67.21875 -35.6875 L 82.421875 -35.6875 L 82.421875 -31.53125 L 79.65625 -31.53125 L 79.65625 -30.15625 L 76.34375 -30.15625 L 76.34375 -24.609375 L 82.421875 -24.609375 L 82.421875 -19.078125 L 84.921875 -19.078125 L 84.921875 -14.9375 L 73.578125 -14.9375 L 73.578125 -12.171875 L 83.25 -12.171875 L 83.25 -6.640625 L 71.078125 -6.640625 C 71.078125 -5.898438 70.894531 -5.160156 70.53125 -4.421875 C 70.164062 -3.679688 69.796875 -3.035156 69.421875 -2.484375 L 78.28125 -2.484375 C 77.539062 -1.753906 76.984375 -1.296875 76.609375 -1.109375 L 68.046875 -1.109375 C 67.117188 -0.367188 65.828125 0 64.171875 0 L 14.109375 0 C 12.265625 0 10.878906 -0.367188 9.953125 -1.109375 L 18.8125 -1.109375 C 18.4375 -1.296875 17.882812 -1.753906 17.15625 -2.484375 L 8.015625 -2.484375 C 7.648438 -3.035156 7.28125 -3.679688 6.90625 -4.421875 C 6.539062 -5.160156 6.359375 -5.898438 6.359375 -6.640625 L 18.25 -6.640625 L 18.25 -12.171875 L 8.578125 -12.171875 L 8.578125 -14.9375 L 19.921875 -14.9375 L 19.921875 -19.078125 L 17.421875 -19.078125 L 17.421875 -24.609375 L 11.34375 -24.609375 L 11.34375 -30.15625 L 14.65625 -30.15625 L 14.65625 -31.53125 L 17.421875 -31.53125 L 17.421875 -35.6875 L 2.21875 -35.6875 L 2.21875 -39.828125 L 15.21875 -39.828125 L 15.21875 -45.359375 L 23.234375 -45.359375 L 23.234375 -46.75 L 22.953125 -46.75 L 22.953125 -49.515625 L 20.1875 -49.515625 L 20.1875 -55.046875 L 1.390625 -55.046875 L 1.390625 -56.421875 L 15.21875 -56.421875 L 15.21875 -60.578125 L 28.484375 -60.578125 L 28.484375 -61.953125 L 13.828125 -61.953125 L 13.828125 -63.34375 L 19.359375 -63.34375 L 19.359375 -68.875 L 14.9375 -68.875 L 14.9375 -74.40625 L 15.21875 -74.40625 L 15.21875 -75.78125 L 13 -75.78125 L 13 -77.171875 L 13.28125 -77.171875 L 13.28125 -81.3125 L 2.765625 -81.3125 L 2.765625 -82.703125 L 9.953125 -82.703125 L 9.953125 -85.46875 L -6.359375 -85.46875 L -6.359375 -91 L 21.015625 -91 L 21.015625 -93.765625 L 3.59375 -93.765625 L 3.59375 -99.296875 L 13.546875 -99.296875 L 13.546875 -100.6875 L 15.21875 -100.6875 L 15.21875 -104.828125 L 20.1875 -104.828125 L 20.1875 -107.59375 L 22.6875 -107.59375 L 22.6875 -111.75 L 15.484375 -111.75 L 15.484375 -113.125 L 12.71875 -113.125 L 12.71875 -115.890625 L 9.953125 -115.890625 L 9.953125 -121.421875 L 15.21875 -121.421875 L 15.21875 -125.578125 L 22.6875 -125.578125 L 22.6875 -128.34375 L 40.109375 -128.34375 L 40.109375 -129.71875 L 18.53125 -129.71875 L 18.53125 -131.109375 L 11.34375 -131.109375 L 11.34375 -135.25 L 8.296875 -135.25 L 8.296875 -139.40625 L 13.28125 -139.40625 L 13.28125 -144.9375 L 20.46875 -144.9375 L 20.46875 -149.078125 L 27.375 -149.078125 L 27.375 -151.84375 L 13.546875 -151.84375 L 13.546875 -153.234375 L 15.21875 -153.234375 L 15.21875 -158.765625 L 21.578125 -158.765625 L 21.578125 -160.140625 L 8.578125 -160.140625 L 8.578125 -162.90625 L 16.59375 -162.90625 L 16.59375 -168.453125 L 6.078125 -168.453125 L 6.078125 -172.59375 L 13 -172.59375 L 13 -175.359375 L -11.609375 -175.359375 L -11.609375 -179.515625 L -16.875 -179.515625 L -16.875 -182.28125 L 1.65625 -182.28125 L 1.65625 -186.140625 C 1.65625 -186.878906 1.75 -187.4375 1.9375 -187.8125 L 20.46875 -187.8125 C 20.46875 -188.539062 20.835938 -189.460938 21.578125 -190.578125 L 16.59375 -190.578125 C 18.070312 -192.597656 20.101562 -193.609375 22.6875 -193.609375 L 66.375 -193.609375 C 68.40625 -193.609375 70.15625 -193.332031 71.625 -192.78125 C 73.101562 -192.226562 74.304688 -191.492188 75.234375 -190.578125 L 80.21875 -190.578125 C 80.945312 -189.835938 81.679688 -188.914062 82.421875 -187.8125 L 63.890625 -187.8125 C 63.890625 -187.625 63.9375 -187.53125 64.03125 -187.53125 C 64.125 -187.53125 64.171875 -187.4375 64.171875 -187.25 L 67.21875 -182.28125 L 48.6875 -182.28125 L 50.34375 -179.515625 L 55.59375 -179.515625 L 58.078125 -175.359375 L 82.703125 -175.359375 L 84.359375 -172.59375 L 77.71875 -172.59375 L 80.21875 -168.453125 L 90.453125 -168.453125 L 94.046875 -162.90625 L 86.015625 -162.90625 L 87.6875 -160.140625 L 100.6875 -160.140625 L 101.515625 -158.765625 L 95.140625 -158.765625 L 98.46875 -153.234375 L 96.8125 -153.234375 L 97.640625 -151.84375 L 111.46875 -151.84375 L 113.125 -149.078125 L 106.21875 -149.078125 L 108.984375 -144.9375 L 101.78125 -144.9375 L 105.109375 -139.40625 L 99.84375 -139.40625 L 102.34375 -135.25 L 105.375 -135.25 L 108.140625 -131.109375 L 115.34375 -131.109375 L 116.171875 -129.71875 L 120.3125 -129.71875 L 120.3125 -131.109375 L 128.609375 -131.109375 L 128.609375 -135.25 L 120.59375 -135.25 L 120.59375 -139.40625 L 122.53125 -139.40625 L 122.53125 -144.9375 L 128.0625 -144.9375 L 128.0625 -149.078125 L 134.703125 -149.078125 L 134.703125 -151.84375 L 121.421875 -151.84375 L 121.421875 -158.765625 L 137.75 -158.765625 L 137.75 -160.140625 L 137.46875 -160.140625 L 137.46875 -162.90625 L 120.046875 -162.90625 L 120.046875 -168.453125 L 126.125 -168.453125 L 126.125 -172.59375 L 134.140625 -172.59375 L 134.140625 -175.359375 L 117.28125 -175.359375 L 117.28125 -179.515625 L 138.84375 -179.515625 L 138.84375 -182.28125 L 137.1875 -182.28125 L 137.1875 -186.140625 C 137.1875 -186.878906 137.28125 -187.4375 137.46875 -187.8125 L 128.34375 -187.8125 C 128.519531 -188.539062 128.976562 -189.460938 129.71875 -190.578125 L 120.3125 -190.578125 C 121.789062 -192.597656 123.820312 -193.609375 126.40625 -193.609375 L 176.46875 -193.609375 C 179.050781 -193.609375 181.078125 -192.597656 182.546875 -190.578125 L 191.953125 -190.578125 C 192.328125 -189.835938 192.695312 -188.914062 193.0625 -187.8125 L 202.1875 -187.8125 L 202.1875 -182.28125 L 203.84375 -182.28125 L 203.84375 -179.515625 L 182.28125 -179.515625 L 182.28125 -175.359375 L 199.140625 -175.359375 L 199.140625 -172.59375 L 191.125 -172.59375 L 191.125 -168.453125 L 185.046875 -168.453125 L 185.046875 -162.90625 L 202.46875 -162.90625 L 202.46875 -160.140625 L 202.75 -160.140625 L 202.75 -158.765625 L 186.421875 -158.765625 L 186.421875 -151.84375 L 199.703125 -151.84375 L 199.703125 -149.078125 L 193.0625 -149.078125 L 193.0625 -144.9375 L 187.53125 -144.9375 L 187.53125 -139.40625 L 185.59375 -139.40625 L 185.59375 -135.25 L 193.609375 -135.25 L 193.609375 -131.109375 L 185.3125 -131.109375 L 185.3125 -129.71875 L 204.671875 -129.71875 L 204.671875 -128.34375 L 194.453125 -128.34375 L 194.453125 -125.578125 L 191.671875 -125.578125 L 191.671875 -121.421875 L 182.546875 -121.421875 L 182.546875 -115.890625 L 173.140625 -115.890625 L 173.140625 -113.125 L 187.53125 -113.125 L 187.53125 -111.75 L 196.9375 -111.75 L 196.9375 -107.59375 L 194.453125 -107.59375 L 194.453125 -104.828125 L 189.46875 -104.828125 L 189.46875 -100.6875 L 187.8125 -100.6875 L 187.8125 -99.296875 L 177.84375 -99.296875 L 177.84375 -93.765625 L 195.28125 -93.765625 L 195.28125 -91 L 167.890625 -91 L 167.890625 -85.46875 L 184.21875 -85.46875 L 184.21875 -82.703125 L 177.015625 -82.703125 L 177.015625 -81.3125 L 187.53125 -81.3125 L 187.53125 -77.171875 L 187.25 -77.171875 L 187.25 -75.78125 L 196.109375 -75.78125 L 196.109375 -74.40625 L 190.015625 -74.40625 L 190.015625 -68.875 L 190.578125 -68.875 L 190.578125 -63.34375 L 198.3125 -63.34375 L 198.3125 -61.953125 L 185.046875 -61.953125 L 185.046875 -60.578125 L 193.0625 -60.578125 L 193.0625 -56.421875 L 180.34375 -56.421875 L 180.34375 -55.046875 L 184.765625 -55.046875 L 184.765625 -49.515625 L 193.34375 -49.515625 L 193.34375 -46.75 L 202.46875 -46.75 L 202.46875 -45.359375 L 184.765625 -45.359375 L 184.765625 -39.828125 L 196.109375 -39.828125 L 196.109375 -35.6875 L 190.296875 -35.6875 L 190.296875 -31.53125 L 177.84375 -31.53125 L 177.84375 -30.15625 L 187.53125 -30.15625 L 187.53125 -24.609375 L 183.375 -24.609375 L 183.375 -19.078125 L 215.46875 -19.078125 Z M 139.6875 -129.71875 L 137.75 -129.71875 L 138.578125 -128.34375 L 139.6875 -128.34375 Z M 121.140625 -128.34375 L 122.8125 -125.578125 L 115.34375 -125.578125 L 117.828125 -121.421875 L 126.6875 -121.421875 L 126.6875 -125.578125 L 129.453125 -125.578125 L 129.453125 -128.34375 Z M 117.546875 -121.421875 L 112.578125 -121.421875 L 115.890625 -115.890625 L 117.546875 -115.890625 Z M 99.015625 -61.953125 L 98.1875 -63.34375 L 90.453125 -63.34375 L 86.84375 -68.875 L 86.015625 -68.875 L 82.421875 -74.40625 L 88.515625 -74.40625 L 87.40625 -75.78125 L 80.21875 -75.78125 L 80.21875 -74.40625 L 79.9375 -74.40625 L 79.9375 -68.875 L 84.359375 -68.875 L 84.359375 -63.34375 L 78.828125 -63.34375 L 78.828125 -61.953125 Z M 99.015625 -61.953125 "/></g></g></g><g fill="#e05d09" fill-opacity="1"><g transform="translate(605.109933, 325.563679)"><g><path d="M 185.875 -27.375 L 174.53125 -27.375 L 172.046875 -24.609375 L 214.359375 -24.609375 C 214.171875 -24.429688 213.984375 -24.25 213.796875 -24.0625 C 213.617188 -23.875 213.347656 -23.597656 212.984375 -23.234375 L 147.703125 -23.234375 C 146.773438 -22.304688 145.804688 -21.378906 144.796875 -20.453125 C 143.785156 -19.535156 142.722656 -18.617188 141.609375 -17.703125 L 161.8125 -17.703125 L 158.21875 -14.9375 L 195.828125 -14.9375 L 193.609375 -13.546875 L 177.296875 -13.546875 C 177.109375 -13.367188 176.785156 -13.1875 176.328125 -13 C 175.867188 -12.8125 175.453125 -12.535156 175.078125 -12.171875 L 156.546875 -12.171875 L 148.8125 -8.015625 L 159.59375 -8.015625 C 157.195312 -6.910156 154.800781 -5.941406 152.40625 -5.109375 C 150.007812 -4.285156 147.519531 -3.410156 144.9375 -2.484375 L 134.984375 -2.484375 C 128.710938 -0.640625 121.890625 0.738281 114.515625 1.65625 L 115.890625 1.65625 C 112.941406 2.03125 109.898438 2.304688 106.765625 2.484375 C 103.628906 2.671875 100.492188 2.765625 97.359375 2.765625 C 93.859375 2.765625 90.398438 2.671875 86.984375 2.484375 C 83.578125 2.304688 80.304688 2.03125 77.171875 1.65625 L 76.0625 1.65625 C 68.132812 0.738281 61.035156 -0.640625 54.765625 -2.484375 L 64.71875 -2.484375 C 61.957031 -3.410156 59.375 -4.285156 56.96875 -5.109375 C 54.570312 -5.941406 52.175781 -6.910156 49.78125 -8.015625 L 39 -8.015625 C 37.707031 -8.753906 36.414062 -9.445312 35.125 -10.09375 C 33.832031 -10.738281 32.539062 -11.429688 31.25 -12.171875 L 50.0625 -12.171875 L 47.84375 -13.546875 L 64.171875 -13.546875 C 63.984375 -13.921875 63.703125 -14.195312 63.328125 -14.375 C 62.960938 -14.5625 62.597656 -14.75 62.234375 -14.9375 L 24.609375 -14.9375 C 23.878906 -15.300781 23.234375 -15.757812 22.671875 -16.3125 C 22.117188 -16.875 21.566406 -17.335938 21.015625 -17.703125 L 0.546875 -17.703125 C -0.367188 -18.617188 -1.332031 -19.535156 -2.34375 -20.453125 C -3.363281 -21.378906 -4.332031 -22.304688 -5.25 -23.234375 L 60.015625 -23.234375 C 59.835938 -23.597656 59.65625 -23.875 59.46875 -24.0625 C 59.28125 -24.25 59.097656 -24.429688 58.921875 -24.609375 L 16.59375 -24.609375 C 15.851562 -25.347656 15.117188 -26.269531 14.390625 -27.375 L 25.71875 -27.375 C 25.539062 -27.75 25.359375 -28.023438 25.171875 -28.203125 C 24.984375 -28.390625 24.796875 -28.578125 24.609375 -28.765625 L 59.1875 -28.765625 L 56.703125 -32.921875 L 39.546875 -32.921875 L 38.71875 -34.296875 L -0.28125 -34.296875 C -0.457031 -35.035156 -0.726562 -35.726562 -1.09375 -36.375 C -1.46875 -37.019531 -1.84375 -37.710938 -2.21875 -38.453125 L 16.3125 -38.453125 L 14.65625 -42.59375 L 8.015625 -42.59375 L 7.46875 -43.984375 L 10.515625 -43.984375 C 10.328125 -44.710938 10.140625 -45.398438 9.953125 -46.046875 C 9.773438 -46.691406 9.59375 -47.382812 9.40625 -48.125 L 7.1875 -48.125 C 7.1875 -48.863281 7.140625 -49.554688 7.046875 -50.203125 C 6.960938 -50.847656 6.828125 -51.539062 6.640625 -52.28125 L 4.421875 -52.28125 C 4.421875 -53.007812 4.375 -53.648438 4.28125 -54.203125 C 4.195312 -54.765625 4.15625 -55.414062 4.15625 -56.15625 L 4.15625 -56.421875 L 3.875 -56.421875 C 3.875 -56.796875 3.921875 -57.070312 4.015625 -57.25 C 4.109375 -57.4375 4.15625 -57.625 4.15625 -57.8125 L 10.515625 -57.8125 C 11.429688 -60.757812 13.363281 -62.234375 16.3125 -62.234375 L 68.875 -62.234375 C 71.820312 -62.234375 74.03125 -61.863281 75.5 -61.125 C 76.976562 -60.382812 78.640625 -59.28125 80.484375 -57.8125 L 74.125 -57.8125 L 74.40625 -57.53125 C 74.769531 -57.34375 75.085938 -57.15625 75.359375 -56.96875 C 75.640625 -56.789062 75.875 -56.609375 76.0625 -56.421875 L 76.34375 -56.421875 C 78.738281 -54.578125 81.6875 -53.195312 85.1875 -52.28125 L 87.6875 -52.28125 C 90.082031 -51.539062 93.304688 -51.171875 97.359375 -51.171875 C 99.753906 -51.171875 101.96875 -51.257812 104 -51.4375 C 106.03125 -51.625 107.78125 -51.90625 109.25 -52.28125 L 108.421875 -52.28125 C 112.660156 -53.195312 115.335938 -54.578125 116.453125 -56.421875 L 115.890625 -56.421875 C 116.265625 -57.160156 116.453125 -57.625 116.453125 -57.8125 L 119.21875 -57.8125 L 119.484375 -58.921875 C 119.484375 -60.578125 118.835938 -62.050781 117.546875 -63.34375 L 115.34375 -63.34375 C 113.675781 -65 110.722656 -66.378906 106.484375 -67.484375 L 105.65625 -67.484375 C 104 -68.035156 102.0625 -68.539062 99.84375 -69 C 97.632812 -69.46875 95.054688 -69.882812 92.109375 -70.25 L 90.453125 -70.25 L 79.109375 -71.921875 C 77.816406 -72.097656 76.570312 -72.28125 75.375 -72.46875 C 74.175781 -72.65625 72.929688 -72.835938 71.640625 -73.015625 C 64.078125 -74.304688 56.789062 -76.148438 49.78125 -78.546875 L 44.8125 -78.546875 C 42.226562 -79.472656 39.828125 -80.394531 37.609375 -81.3125 L 33.75 -81.3125 C 32.820312 -81.6875 31.894531 -82.101562 30.96875 -82.5625 C 30.050781 -83.019531 29.132812 -83.523438 28.21875 -84.078125 L 4.15625 -84.078125 C 2.863281 -84.816406 1.660156 -85.507812 0.546875 -86.15625 C -0.554688 -86.800781 -1.660156 -87.492188 -2.765625 -88.234375 L 48.6875 -88.234375 C 47.757812 -88.972656 46.878906 -89.664062 46.046875 -90.3125 C 45.222656 -90.957031 44.347656 -91.644531 43.421875 -92.375 L -11.609375 -92.375 C -12.171875 -92.75 -12.679688 -93.210938 -13.140625 -93.765625 C -13.597656 -94.316406 -14.015625 -94.773438 -14.390625 -95.140625 L 0 -95.140625 C -1.65625 -96.992188 -3.222656 -98.84375 -4.703125 -100.6875 L -0.546875 -100.6875 L -2.21875 -103.453125 L -28.765625 -103.453125 C -28.953125 -103.816406 -29.132812 -104.085938 -29.3125 -104.265625 C -29.5 -104.453125 -29.59375 -104.640625 -29.59375 -104.828125 L 33.46875 -104.828125 C 33.101562 -105.566406 32.734375 -106.257812 32.359375 -106.90625 C 31.992188 -107.550781 31.625 -108.242188 31.25 -108.984375 L -17.15625 -108.984375 L -18.8125 -113.125 L 20.1875 -113.125 L 19.640625 -114.515625 L 8.015625 -114.515625 L 7.46875 -115.890625 L 13 -115.890625 C 13 -116.265625 12.953125 -116.539062 12.859375 -116.71875 C 12.765625 -116.90625 12.71875 -117.09375 12.71875 -117.28125 L 11.609375 -117.28125 L 10.78125 -120.046875 L 9.125 -120.046875 L 8.84375 -122.8125 L 8.296875 -122.8125 L 8.296875 -124.1875 L -0.546875 -124.1875 C -0.734375 -124.5625 -0.828125 -125.023438 -0.828125 -125.578125 C -0.828125 -126.128906 -0.828125 -126.585938 -0.828125 -126.953125 L -8.84375 -126.953125 L -9.125 -129.71875 L 22.40625 -129.71875 C 22.21875 -130.09375 22.125 -130.554688 22.125 -131.109375 C 22.125 -131.660156 22.125 -132.117188 22.125 -132.484375 L 26.546875 -132.484375 L 26.546875 -132.765625 C 26.546875 -133.679688 26.546875 -134.597656 26.546875 -135.515625 C 26.546875 -136.441406 26.640625 -137.273438 26.828125 -138.015625 L 14.9375 -138.015625 C 15.125 -138.753906 15.21875 -139.445312 15.21875 -140.09375 C 15.21875 -140.738281 15.304688 -141.429688 15.484375 -142.171875 L 34.84375 -142.171875 C 34.84375 -142.535156 34.890625 -142.8125 34.984375 -143 C 35.078125 -143.1875 35.125 -143.367188 35.125 -143.546875 L 15.484375 -143.546875 C 15.859375 -144.660156 16.046875 -145.582031 16.046875 -146.3125 L 13 -146.3125 L 13.828125 -149.078125 L 9.125 -149.078125 C 9.675781 -151.109375 10.320312 -152.953125 11.0625 -154.609375 L 13.28125 -154.609375 L 14.390625 -157.375 L 17.421875 -157.375 L 19.921875 -161.53125 L 17.15625 -161.53125 C 17.707031 -162.269531 18.210938 -162.960938 18.671875 -163.609375 C 19.128906 -164.253906 19.546875 -164.941406 19.921875 -165.671875 L 17.703125 -165.671875 L 21.015625 -169.828125 L 26.828125 -169.828125 C 27.015625 -170.191406 27.195312 -170.46875 27.375 -170.65625 C 27.5625 -170.84375 27.75 -171.03125 27.9375 -171.21875 L 20.1875 -171.21875 C 20.925781 -171.945312 21.664062 -172.632812 22.40625 -173.28125 C 23.144531 -173.925781 23.878906 -174.617188 24.609375 -175.359375 L 29.046875 -175.359375 C 30.148438 -176.285156 31.253906 -177.253906 32.359375 -178.265625 C 33.460938 -179.273438 34.660156 -180.148438 35.953125 -180.890625 L 40.9375 -180.890625 C 42.039062 -181.628906 43.144531 -182.320312 44.25 -182.96875 C 45.363281 -183.613281 46.5625 -184.304688 47.84375 -185.046875 L 47.015625 -185.046875 C 47.390625 -185.410156 47.851562 -185.679688 48.40625 -185.859375 C 48.957031 -186.046875 49.414062 -186.234375 49.78125 -186.421875 L 45.921875 -186.421875 C 46.285156 -186.796875 46.742188 -187.070312 47.296875 -187.25 C 47.847656 -187.4375 48.398438 -187.625 48.953125 -187.8125 L 46.1875 -187.8125 C 48.769531 -188.914062 51.488281 -189.925781 54.34375 -190.84375 C 57.207031 -191.769531 60.113281 -192.601562 63.0625 -193.34375 L 67.21875 -193.34375 C 71.457031 -194.257812 75.925781 -194.992188 80.625 -195.546875 C 85.332031 -196.097656 90.265625 -196.375 95.421875 -196.375 C 105.191406 -196.375 114.410156 -195.363281 123.078125 -193.34375 L 119.21875 -193.34375 C 125.113281 -192.050781 130.828125 -190.207031 136.359375 -187.8125 L 138.84375 -187.8125 C 139.40625 -187.625 139.960938 -187.4375 140.515625 -187.25 C 141.066406 -187.070312 141.617188 -186.796875 142.171875 -186.421875 L 146.046875 -186.421875 C 146.410156 -186.234375 146.867188 -186.046875 147.421875 -185.859375 C 147.972656 -185.679688 148.4375 -185.410156 148.8125 -185.046875 L 149.640625 -185.046875 C 150.929688 -184.304688 152.175781 -183.613281 153.375 -182.96875 C 154.570312 -182.320312 155.722656 -181.628906 156.828125 -180.890625 L 152.125 -180.890625 C 153.601562 -180.148438 154.941406 -179.273438 156.140625 -178.265625 C 157.335938 -177.253906 158.488281 -176.285156 159.59375 -175.359375 L 155.453125 -175.359375 L 159.875 -171.21875 L 167.609375 -171.21875 L 169 -169.828125 L 163.1875 -169.828125 C 163.925781 -169.085938 164.617188 -168.394531 165.265625 -167.75 C 165.910156 -167.101562 166.507812 -166.410156 167.0625 -165.671875 L 169.28125 -165.671875 L 172.59375 -161.53125 L 175.078125 -161.53125 L 177.578125 -157.375 L 174.53125 -157.375 C 175.082031 -156.457031 175.539062 -155.535156 175.90625 -154.609375 L 173.703125 -154.609375 C 174.253906 -153.691406 174.710938 -152.769531 175.078125 -151.84375 C 175.453125 -150.925781 175.820312 -150.003906 176.1875 -149.078125 L 180.890625 -149.078125 C 181.265625 -147.972656 181.453125 -147.050781 181.453125 -146.3125 L 184.765625 -146.3125 C 184.953125 -145.945312 185.046875 -145.488281 185.046875 -144.9375 C 185.046875 -144.382812 185.132812 -143.921875 185.3125 -143.546875 L 204.953125 -143.546875 L 204.953125 -142.171875 L 187.25 -142.171875 C 187.4375 -141.429688 187.53125 -140.414062 187.53125 -139.125 L 187.53125 -138.015625 L 177.296875 -138.015625 C 176.554688 -134.703125 174.710938 -133.046875 171.765625 -133.046875 L 116.453125 -133.046875 C 113.867188 -133.046875 111.789062 -133.410156 110.21875 -134.140625 C 108.65625 -134.878906 107.039062 -135.988281 105.375 -137.46875 L 104.546875 -138.015625 L 114.78125 -138.015625 C 113.863281 -138.753906 112.570312 -139.535156 110.90625 -140.359375 C 109.25 -141.191406 107.128906 -141.796875 104.546875 -142.171875 L 94.59375 -142.171875 C 90.71875 -141.617188 88.046875 -140.234375 86.578125 -138.015625 L 98.46875 -138.015625 C 97.914062 -136.910156 97.640625 -135.804688 97.640625 -134.703125 C 97.640625 -133.773438 97.734375 -133.035156 97.921875 -132.484375 L 93.765625 -132.484375 C 93.953125 -131.566406 94.691406 -130.644531 95.984375 -129.71875 L 64.71875 -129.71875 C 65.820312 -128.800781 67.757812 -127.878906 70.53125 -126.953125 L 78.546875 -126.953125 C 80.023438 -126.398438 81.820312 -125.894531 83.9375 -125.4375 C 86.0625 -124.976562 88.320312 -124.5625 90.71875 -124.1875 L 99.578125 -124.1875 C 101.046875 -124 102.609375 -123.8125 104.265625 -123.625 C 105.929688 -123.445312 107.6875 -123.175781 109.53125 -122.8125 L 109.8125 -122.8125 C 112.945312 -122.4375 115.988281 -122.019531 118.9375 -121.5625 C 121.882812 -121.101562 124.648438 -120.597656 127.234375 -120.046875 L 128.890625 -120.046875 C 131.109375 -119.671875 133.179688 -119.253906 135.109375 -118.796875 C 137.046875 -118.335938 138.9375 -117.832031 140.78125 -117.28125 L 141.890625 -117.28125 C 142.816406 -117.09375 143.644531 -116.90625 144.375 -116.71875 C 145.113281 -116.539062 145.851562 -116.265625 146.59375 -115.890625 L 141.34375 -115.890625 C 142.082031 -115.703125 142.769531 -115.515625 143.40625 -115.328125 C 144.050781 -115.148438 144.742188 -114.878906 145.484375 -114.515625 L 157.109375 -114.515625 C 157.660156 -114.328125 158.257812 -114.140625 158.90625 -113.953125 C 159.550781 -113.773438 160.148438 -113.5 160.703125 -113.125 L 121.703125 -113.125 C 125.390625 -111.65625 128.335938 -110.273438 130.546875 -108.984375 L 178.953125 -108.984375 C 180.054688 -108.242188 181.160156 -107.550781 182.265625 -106.90625 C 183.378906 -106.257812 184.394531 -105.566406 185.3125 -104.828125 L 122.25 -104.828125 C 122.625 -104.640625 122.992188 -104.453125 123.359375 -104.265625 C 123.722656 -104.085938 124 -103.816406 124.1875 -103.453125 L 150.75 -103.453125 C 151.300781 -103.078125 151.851562 -102.613281 152.40625 -102.0625 C 152.957031 -101.507812 153.414062 -101.050781 153.78125 -100.6875 L 149.640625 -100.6875 C 151.484375 -99.019531 153.050781 -97.171875 154.34375 -95.140625 L 139.953125 -95.140625 C 140.328125 -94.773438 140.695312 -94.316406 141.0625 -93.765625 C 141.425781 -93.210938 141.703125 -92.75 141.890625 -92.375 L 196.65625 -92.375 L 199.140625 -88.234375 L 147.703125 -88.234375 C 148.066406 -87.492188 148.429688 -86.800781 148.796875 -86.15625 C 149.171875 -85.507812 149.453125 -84.816406 149.640625 -84.078125 L 173.421875 -84.078125 L 174.25 -81.3125 L 178.125 -81.3125 L 178.953125 -78.546875 L 183.9375 -78.546875 C 184.300781 -77.816406 184.53125 -76.941406 184.625 -75.921875 C 184.71875 -74.910156 184.859375 -73.941406 185.046875 -73.015625 L 185.3125 -70.25 L 186.984375 -70.25 C 187.160156 -69.882812 187.25 -69.425781 187.25 -68.875 C 187.25 -68.320312 187.25 -67.859375 187.25 -67.484375 L 188.078125 -67.484375 L 188.078125 -63.34375 L 190.578125 -63.34375 L 190.578125 -62.515625 C 190.578125 -61.773438 190.53125 -61.035156 190.4375 -60.296875 C 190.34375 -59.554688 190.296875 -58.726562 190.296875 -57.8125 L 187.53125 -57.8125 L 187.53125 -56.421875 L 188.078125 -56.421875 C 188.078125 -55.679688 188.03125 -54.988281 187.9375 -54.34375 C 187.851562 -53.695312 187.71875 -53.007812 187.53125 -52.28125 L 188.359375 -52.28125 L 187.53125 -48.125 L 189.75 -48.125 C 189.5625 -47.382812 189.375 -46.691406 189.1875 -46.046875 C 189 -45.398438 188.722656 -44.710938 188.359375 -43.984375 L 185.3125 -43.984375 C 185.3125 -43.796875 185.265625 -43.609375 185.171875 -43.421875 C 185.085938 -43.242188 185.046875 -42.96875 185.046875 -42.59375 L 191.671875 -42.59375 L 190.015625 -38.453125 L 171.484375 -38.453125 C 171.304688 -37.710938 170.984375 -37.019531 170.515625 -36.375 C 170.054688 -35.726562 169.644531 -35.035156 169.28125 -34.296875 L 208.28125 -34.296875 L 207.4375 -32.921875 L 224.3125 -32.921875 C 223.945312 -32.179688 223.53125 -31.488281 223.0625 -30.84375 C 222.601562 -30.195312 222.097656 -29.503906 221.546875 -28.765625 L 186.984375 -28.765625 C 186.796875 -28.578125 186.609375 -28.390625 186.421875 -28.203125 C 186.234375 -28.023438 186.050781 -27.75 185.875 -27.375 Z M 113.953125 -142.171875 L 122.25 -142.171875 C 121.695312 -142.359375 121.097656 -142.453125 120.453125 -142.453125 C 119.804688 -142.453125 119.113281 -142.453125 118.375 -142.453125 C 117.644531 -142.453125 116.910156 -142.453125 116.171875 -142.453125 C 115.429688 -142.453125 114.691406 -142.359375 113.953125 -142.171875 Z M 113.953125 -142.171875 "/></g></g></g><g fill="#e05d09" fill-opacity="1"><g transform="translate(771.886648, 325.563679)"><g><path d="M 190.015625 -48.125 L 211.875 -48.125 L 211.875 -43.984375 L 169.828125 -43.984375 L 169.828125 -38.453125 L 196.9375 -38.453125 L 196.9375 -32.921875 L 173.140625 -32.921875 L 173.140625 -27.375 L 176.1875 -27.375 L 176.1875 -23.234375 L 174.25 -23.234375 L 174.25 -20.46875 L 168.453125 -20.46875 L 168.453125 -17.703125 L 168.171875 -17.703125 L 168.171875 -14.9375 L 173.984375 -14.9375 L 173.984375 -9.40625 L 182 -9.40625 L 182 -7.46875 C 182 -7.101562 181.90625 -6.828125 181.71875 -6.640625 L 132.484375 -6.640625 C 132.304688 -6.265625 132.21875 -5.800781 132.21875 -5.25 L 151.296875 -5.25 C 150.742188 -3.40625 149.726562 -2.023438 148.25 -1.109375 L 143 -1.109375 C 142.070312 -0.367188 140.78125 0 139.125 0 L -4.984375 0 C -6.453125 0 -7.832031 -0.367188 -9.125 -1.109375 L -3.875 -1.109375 C -5.164062 -2.023438 -6.179688 -3.40625 -6.921875 -5.25 L -26.28125 -5.25 C -26.457031 -5.625 -26.546875 -6.085938 -26.546875 -6.640625 L 22.953125 -6.640625 L 22.953125 -9.40625 L 14.9375 -9.40625 L 14.9375 -14.9375 L 9.125 -14.9375 L 9.125 -17.703125 L 9.40625 -17.703125 L 9.40625 -20.46875 L 15.21875 -20.46875 L 15.21875 -23.234375 L 17.15625 -23.234375 L 17.15625 -27.375 L 14.109375 -27.375 L 14.109375 -32.921875 L 37.890625 -32.921875 L 37.890625 -38.453125 L 10.78125 -38.453125 L 10.78125 -43.984375 L 52.828125 -43.984375 L 52.828125 -48.125 L 30.984375 -48.125 L 30.984375 -50.890625 L 37.34375 -50.890625 L 37.34375 -53.65625 L 40.109375 -53.65625 L 40.109375 -56.421875 L 9.40625 -56.421875 L 9.40625 -59.1875 L 2.21875 -59.1875 L 2.21875 -63.34375 L 27.9375 -63.34375 L 27.9375 -64.71875 L 7.46875 -64.71875 L 7.46875 -67.484375 L 13.546875 -67.484375 L 13.546875 -70.25 L 17.984375 -70.25 L 17.984375 -74.40625 L 17.421875 -74.40625 L 17.421875 -79.9375 L 14.65625 -79.9375 L 14.65625 -85.46875 L 10.515625 -85.46875 L 10.515625 -88.234375 L 13.828125 -88.234375 L 13.828125 -93.765625 L 10.78125 -93.765625 L 10.78125 -96.53125 L 15.21875 -96.53125 L 15.21875 -100.6875 L 16.3125 -100.6875 L 16.3125 -104.828125 L 21.296875 -104.828125 L 21.296875 -106.21875 L 16.59375 -106.21875 L 16.59375 -111.75 L 12.453125 -111.75 L 12.453125 -115.890625 L 13.546875 -115.890625 L 13.546875 -120.046875 L 14.109375 -120.046875 L 14.109375 -125.578125 L 18.25 -125.578125 L 18.25 -131.109375 L 12.171875 -131.109375 L 12.171875 -136.640625 L 13 -136.640625 L 13 -142.171875 L 20.75 -142.171875 L 20.75 -146.3125 L 16.59375 -146.3125 L 16.59375 -150.46875 L 14.390625 -150.46875 L 14.390625 -151.84375 L 26 -151.84375 L 26 -156 L 46.46875 -156 L 46.46875 -158.765625 L 38.171875 -158.765625 L 38.171875 -161.53125 L 11.34375 -161.53125 L 11.34375 -162.90625 L 14.390625 -162.90625 L 14.390625 -167.0625 L 14.65625 -167.0625 L 14.65625 -171.21875 L 15.484375 -171.21875 L 15.484375 -176.75 L 15.21875 -176.75 L 15.21875 -183.65625 L 14.65625 -183.65625 L 14.65625 -186.140625 C 14.65625 -186.878906 14.75 -187.4375 14.9375 -187.8125 L 12.171875 -187.8125 C 12.910156 -191.675781 15.304688 -193.609375 19.359375 -193.609375 L 161.25 -193.609375 C 165.488281 -193.609375 167.890625 -191.675781 168.453125 -187.8125 L 171.21875 -187.8125 C 171.394531 -187.4375 171.484375 -186.878906 171.484375 -186.140625 L 171.484375 -183.65625 L 172.046875 -183.65625 L 172.046875 -176.75 L 172.3125 -176.75 L 172.3125 -171.21875 L 171.484375 -171.21875 L 171.484375 -167.0625 L 171.21875 -167.0625 L 171.21875 -162.90625 L 168.171875 -162.90625 L 168.171875 -161.53125 L 195 -161.53125 L 195 -158.765625 L 203.296875 -158.765625 L 203.296875 -156 L 182.828125 -156 L 182.828125 -151.84375 L 171.21875 -151.84375 L 171.21875 -150.46875 L 173.421875 -150.46875 L 173.421875 -146.3125 L 177.578125 -146.3125 C 177.203125 -144.46875 176.554688 -143.085938 175.640625 -142.171875 L 167.890625 -142.171875 C 166.597656 -140.515625 164.753906 -139.6875 162.359375 -139.6875 L 79.375 -139.6875 L 79.375 -136.640625 L 78.546875 -136.640625 L 78.546875 -131.109375 L 84.640625 -131.109375 L 84.640625 -125.578125 L 80.484375 -125.578125 L 80.484375 -122.25 L 157.375 -122.25 C 159.40625 -122.25 161.160156 -121.515625 162.640625 -120.046875 L 162.078125 -120.046875 C 163.003906 -119.117188 163.648438 -117.734375 164.015625 -115.890625 L 163.1875 -115.890625 L 163.1875 -111.75 L 167.34375 -111.75 L 167.34375 -106.21875 L 172.046875 -106.21875 L 172.046875 -104.828125 L 167.0625 -104.828125 L 167.0625 -100.6875 L 165.953125 -100.6875 L 165.953125 -96.53125 L 161.53125 -96.53125 L 161.53125 -93.765625 L 164.578125 -93.765625 L 164.578125 -88.234375 L 161.25 -88.234375 L 161.25 -85.46875 L 165.40625 -85.46875 L 165.40625 -79.9375 L 168.171875 -79.9375 L 168.171875 -78.828125 C 168.171875 -76.796875 167.707031 -75.320312 166.78125 -74.40625 L 167.34375 -74.40625 C 165.863281 -72.375 163.832031 -71.359375 161.25 -71.359375 L 84.359375 -71.359375 L 84.359375 -70.25 L 79.9375 -70.25 L 79.9375 -67.484375 L 73.84375 -67.484375 L 73.84375 -64.71875 L 94.3125 -64.71875 L 94.3125 -63.34375 L 68.59375 -63.34375 L 68.59375 -59.1875 L 75.78125 -59.1875 L 75.78125 -56.421875 L 106.484375 -56.421875 L 106.484375 -53.9375 L 191.671875 -53.9375 C 192.597656 -53.9375 193.335938 -53.84375 193.890625 -53.65625 L 190.84375 -53.65625 C 192.6875 -53.101562 194.070312 -52.179688 195 -50.890625 L 188.640625 -50.890625 C 189.378906 -49.785156 189.835938 -48.863281 190.015625 -48.125 Z M 190.015625 -48.125 "/></g></g></g><g fill="#e05d09" fill-opacity="1"><g transform="translate(930.365921, 325.563679)"><g><path d="M 185.875 -27.375 L 174.53125 -27.375 L 172.046875 -24.609375 L 214.359375 -24.609375 C 214.171875 -24.429688 213.984375 -24.25 213.796875 -24.0625 C 213.617188 -23.875 213.347656 -23.597656 212.984375 -23.234375 L 147.703125 -23.234375 C 146.773438 -22.304688 145.804688 -21.378906 144.796875 -20.453125 C 143.785156 -19.535156 142.722656 -18.617188 141.609375 -17.703125 L 161.8125 -17.703125 L 158.21875 -14.9375 L 195.828125 -14.9375 L 193.609375 -13.546875 L 177.296875 -13.546875 C 177.109375 -13.367188 176.785156 -13.1875 176.328125 -13 C 175.867188 -12.8125 175.453125 -12.535156 175.078125 -12.171875 L 156.546875 -12.171875 L 148.8125 -8.015625 L 159.59375 -8.015625 C 157.195312 -6.910156 154.800781 -5.941406 152.40625 -5.109375 C 150.007812 -4.285156 147.519531 -3.410156 144.9375 -2.484375 L 134.984375 -2.484375 C 128.710938 -0.640625 121.890625 0.738281 114.515625 1.65625 L 115.890625 1.65625 C 112.941406 2.03125 109.898438 2.304688 106.765625 2.484375 C 103.628906 2.671875 100.492188 2.765625 97.359375 2.765625 C 93.859375 2.765625 90.398438 2.671875 86.984375 2.484375 C 83.578125 2.304688 80.304688 2.03125 77.171875 1.65625 L 76.0625 1.65625 C 68.132812 0.738281 61.035156 -0.640625 54.765625 -2.484375 L 64.71875 -2.484375 C 61.957031 -3.410156 59.375 -4.285156 56.96875 -5.109375 C 54.570312 -5.941406 52.175781 -6.910156 49.78125 -8.015625 L 39 -8.015625 C 37.707031 -8.753906 36.414062 -9.445312 35.125 -10.09375 C 33.832031 -10.738281 32.539062 -11.429688 31.25 -12.171875 L 50.0625 -12.171875 L 47.84375 -13.546875 L 64.171875 -13.546875 C 63.984375 -13.921875 63.703125 -14.195312 63.328125 -14.375 C 62.960938 -14.5625 62.597656 -14.75 62.234375 -14.9375 L 24.609375 -14.9375 C 23.878906 -15.300781 23.234375 -15.757812 22.671875 -16.3125 C 22.117188 -16.875 21.566406 -17.335938 21.015625 -17.703125 L 0.546875 -17.703125 C -0.367188 -18.617188 -1.332031 -19.535156 -2.34375 -20.453125 C -3.363281 -21.378906 -4.332031 -22.304688 -5.25 -23.234375 L 60.015625 -23.234375 C 59.835938 -23.597656 59.65625 -23.875 59.46875 -24.0625 C 59.28125 -24.25 59.097656 -24.429688 58.921875 -24.609375 L 16.59375 -24.609375 C 15.851562 -25.347656 15.117188 -26.269531 14.390625 -27.375 L 25.71875 -27.375 C 25.539062 -27.75 25.359375 -28.023438 25.171875 -28.203125 C 24.984375 -28.390625 24.796875 -28.578125 24.609375 -28.765625 L 59.1875 -28.765625 L 56.703125 -32.921875 L 39.546875 -32.921875 L 38.71875 -34.296875 L -0.28125 -34.296875 C -0.457031 -35.035156 -0.726562 -35.726562 -1.09375 -36.375 C -1.46875 -37.019531 -1.84375 -37.710938 -2.21875 -38.453125 L 16.3125 -38.453125 L 14.65625 -42.59375 L 8.015625 -42.59375 L 7.46875 -43.984375 L 10.515625 -43.984375 C 10.328125 -44.710938 10.140625 -45.398438 9.953125 -46.046875 C 9.773438 -46.691406 9.59375 -47.382812 9.40625 -48.125 L 7.1875 -48.125 C 7.1875 -48.863281 7.140625 -49.554688 7.046875 -50.203125 C 6.960938 -50.847656 6.828125 -51.539062 6.640625 -52.28125 L 4.421875 -52.28125 C 4.421875 -53.007812 4.375 -53.648438 4.28125 -54.203125 C 4.195312 -54.765625 4.15625 -55.414062 4.15625 -56.15625 L 4.15625 -56.421875 L 3.875 -56.421875 C 3.875 -56.796875 3.921875 -57.070312 4.015625 -57.25 C 4.109375 -57.4375 4.15625 -57.625 4.15625 -57.8125 L 10.515625 -57.8125 C 11.429688 -60.757812 13.363281 -62.234375 16.3125 -62.234375 L 68.875 -62.234375 C 71.820312 -62.234375 74.03125 -61.863281 75.5 -61.125 C 76.976562 -60.382812 78.640625 -59.28125 80.484375 -57.8125 L 74.125 -57.8125 L 74.40625 -57.53125 C 74.769531 -57.34375 75.085938 -57.15625 75.359375 -56.96875 C 75.640625 -56.789062 75.875 -56.609375 76.0625 -56.421875 L 76.34375 -56.421875 C 78.738281 -54.578125 81.6875 -53.195312 85.1875 -52.28125 L 87.6875 -52.28125 C 90.082031 -51.539062 93.304688 -51.171875 97.359375 -51.171875 C 99.753906 -51.171875 101.96875 -51.257812 104 -51.4375 C 106.03125 -51.625 107.78125 -51.90625 109.25 -52.28125 L 108.421875 -52.28125 C 112.660156 -53.195312 115.335938 -54.578125 116.453125 -56.421875 L 115.890625 -56.421875 C 116.265625 -57.160156 116.453125 -57.625 116.453125 -57.8125 L 119.21875 -57.8125 L 119.484375 -58.921875 C 119.484375 -60.578125 118.835938 -62.050781 117.546875 -63.34375 L 115.34375 -63.34375 C 113.675781 -65 110.722656 -66.378906 106.484375 -67.484375 L 105.65625 -67.484375 C 104 -68.035156 102.0625 -68.539062 99.84375 -69 C 97.632812 -69.46875 95.054688 -69.882812 92.109375 -70.25 L 90.453125 -70.25 L 79.109375 -71.921875 C 77.816406 -72.097656 76.570312 -72.28125 75.375 -72.46875 C 74.175781 -72.65625 72.929688 -72.835938 71.640625 -73.015625 C 64.078125 -74.304688 56.789062 -76.148438 49.78125 -78.546875 L 44.8125 -78.546875 C 42.226562 -79.472656 39.828125 -80.394531 37.609375 -81.3125 L 33.75 -81.3125 C 32.820312 -81.6875 31.894531 -82.101562 30.96875 -82.5625 C 30.050781 -83.019531 29.132812 -83.523438 28.21875 -84.078125 L 4.15625 -84.078125 C 2.863281 -84.816406 1.660156 -85.507812 0.546875 -86.15625 C -0.554688 -86.800781 -1.660156 -87.492188 -2.765625 -88.234375 L 48.6875 -88.234375 C 47.757812 -88.972656 46.878906 -89.664062 46.046875 -90.3125 C 45.222656 -90.957031 44.347656 -91.644531 43.421875 -92.375 L -11.609375 -92.375 C -12.171875 -92.75 -12.679688 -93.210938 -13.140625 -93.765625 C -13.597656 -94.316406 -14.015625 -94.773438 -14.390625 -95.140625 L 0 -95.140625 C -1.65625 -96.992188 -3.222656 -98.84375 -4.703125 -100.6875 L -0.546875 -100.6875 L -2.21875 -103.453125 L -28.765625 -103.453125 C -28.953125 -103.816406 -29.132812 -104.085938 -29.3125 -104.265625 C -29.5 -104.453125 -29.59375 -104.640625 -29.59375 -104.828125 L 33.46875 -104.828125 C 33.101562 -105.566406 32.734375 -106.257812 32.359375 -106.90625 C 31.992188 -107.550781 31.625 -108.242188 31.25 -108.984375 L -17.15625 -108.984375 L -18.8125 -113.125 L 20.1875 -113.125 L 19.640625 -114.515625 L 8.015625 -114.515625 L 7.46875 -115.890625 L 13 -115.890625 C 13 -116.265625 12.953125 -116.539062 12.859375 -116.71875 C 12.765625 -116.90625 12.71875 -117.09375 12.71875 -117.28125 L 11.609375 -117.28125 L 10.78125 -120.046875 L 9.125 -120.046875 L 8.84375 -122.8125 L 8.296875 -122.8125 L 8.296875 -124.1875 L -0.546875 -124.1875 C -0.734375 -124.5625 -0.828125 -125.023438 -0.828125 -125.578125 C -0.828125 -126.128906 -0.828125 -126.585938 -0.828125 -126.953125 L -8.84375 -126.953125 L -9.125 -129.71875 L 22.40625 -129.71875 C 22.21875 -130.09375 22.125 -130.554688 22.125 -131.109375 C 22.125 -131.660156 22.125 -132.117188 22.125 -132.484375 L 26.546875 -132.484375 L 26.546875 -132.765625 C 26.546875 -133.679688 26.546875 -134.597656 26.546875 -135.515625 C 26.546875 -136.441406 26.640625 -137.273438 26.828125 -138.015625 L 14.9375 -138.015625 C 15.125 -138.753906 15.21875 -139.445312 15.21875 -140.09375 C 15.21875 -140.738281 15.304688 -141.429688 15.484375 -142.171875 L 34.84375 -142.171875 C 34.84375 -142.535156 34.890625 -142.8125 34.984375 -143 C 35.078125 -143.1875 35.125 -143.367188 35.125 -143.546875 L 15.484375 -143.546875 C 15.859375 -144.660156 16.046875 -145.582031 16.046875 -146.3125 L 13 -146.3125 L 13.828125 -149.078125 L 9.125 -149.078125 C 9.675781 -151.109375 10.320312 -152.953125 11.0625 -154.609375 L 13.28125 -154.609375 L 14.390625 -157.375 L 17.421875 -157.375 L 19.921875 -161.53125 L 17.15625 -161.53125 C 17.707031 -162.269531 18.210938 -162.960938 18.671875 -163.609375 C 19.128906 -164.253906 19.546875 -164.941406 19.921875 -165.671875 L 17.703125 -165.671875 L 21.015625 -169.828125 L 26.828125 -169.828125 C 27.015625 -170.191406 27.195312 -170.46875 27.375 -170.65625 C 27.5625 -170.84375 27.75 -171.03125 27.9375 -171.21875 L 20.1875 -171.21875 C 20.925781 -171.945312 21.664062 -172.632812 22.40625 -173.28125 C 23.144531 -173.925781 23.878906 -174.617188 24.609375 -175.359375 L 29.046875 -175.359375 C 30.148438 -176.285156 31.253906 -177.253906 32.359375 -178.265625 C 33.460938 -179.273438 34.660156 -180.148438 35.953125 -180.890625 L 40.9375 -180.890625 C 42.039062 -181.628906 43.144531 -182.320312 44.25 -182.96875 C 45.363281 -183.613281 46.5625 -184.304688 47.84375 -185.046875 L 47.015625 -185.046875 C 47.390625 -185.410156 47.851562 -185.679688 48.40625 -185.859375 C 48.957031 -186.046875 49.414062 -186.234375 49.78125 -186.421875 L 45.921875 -186.421875 C 46.285156 -186.796875 46.742188 -187.070312 47.296875 -187.25 C 47.847656 -187.4375 48.398438 -187.625 48.953125 -187.8125 L 46.1875 -187.8125 C 48.769531 -188.914062 51.488281 -189.925781 54.34375 -190.84375 C 57.207031 -191.769531 60.113281 -192.601562 63.0625 -193.34375 L 67.21875 -193.34375 C 71.457031 -194.257812 75.925781 -194.992188 80.625 -195.546875 C 85.332031 -196.097656 90.265625 -196.375 95.421875 -196.375 C 105.191406 -196.375 114.410156 -195.363281 123.078125 -193.34375 L 119.21875 -193.34375 C 125.113281 -192.050781 130.828125 -190.207031 136.359375 -187.8125 L 138.84375 -187.8125 C 139.40625 -187.625 139.960938 -187.4375 140.515625 -187.25 C 141.066406 -187.070312 141.617188 -186.796875 142.171875 -186.421875 L 146.046875 -186.421875 C 146.410156 -186.234375 146.867188 -186.046875 147.421875 -185.859375 C 147.972656 -185.679688 148.4375 -185.410156 148.8125 -185.046875 L 149.640625 -185.046875 C 150.929688 -184.304688 152.175781 -183.613281 153.375 -182.96875 C 154.570312 -182.320312 155.722656 -181.628906 156.828125 -180.890625 L 152.125 -180.890625 C 153.601562 -180.148438 154.941406 -179.273438 156.140625 -178.265625 C 157.335938 -177.253906 158.488281 -176.285156 159.59375 -175.359375 L 155.453125 -175.359375 L 159.875 -171.21875 L 167.609375 -171.21875 L 169 -169.828125 L 163.1875 -169.828125 C 163.925781 -169.085938 164.617188 -168.394531 165.265625 -167.75 C 165.910156 -167.101562 166.507812 -166.410156 167.0625 -165.671875 L 169.28125 -165.671875 L 172.59375 -161.53125 L 175.078125 -161.53125 L 177.578125 -157.375 L 174.53125 -157.375 C 175.082031 -156.457031 175.539062 -155.535156 175.90625 -154.609375 L 173.703125 -154.609375 C 174.253906 -153.691406 174.710938 -152.769531 175.078125 -151.84375 C 175.453125 -150.925781 175.820312 -150.003906 176.1875 -149.078125 L 180.890625 -149.078125 C 181.265625 -147.972656 181.453125 -147.050781 181.453125 -146.3125 L 184.765625 -146.3125 C 184.953125 -145.945312 185.046875 -145.488281 185.046875 -144.9375 C 185.046875 -144.382812 185.132812 -143.921875 185.3125 -143.546875 L 204.953125 -143.546875 L 204.953125 -142.171875 L 187.25 -142.171875 C 187.4375 -141.429688 187.53125 -140.414062 187.53125 -139.125 L 187.53125 -138.015625 L 177.296875 -138.015625 C 176.554688 -134.703125 174.710938 -133.046875 171.765625 -133.046875 L 116.453125 -133.046875 C 113.867188 -133.046875 111.789062 -133.410156 110.21875 -134.140625 C 108.65625 -134.878906 107.039062 -135.988281 105.375 -137.46875 L 104.546875 -138.015625 L 114.78125 -138.015625 C 113.863281 -138.753906 112.570312 -139.535156 110.90625 -140.359375 C 109.25 -141.191406 107.128906 -141.796875 104.546875 -142.171875 L 94.59375 -142.171875 C 90.71875 -141.617188 88.046875 -140.234375 86.578125 -138.015625 L 98.46875 -138.015625 C 97.914062 -136.910156 97.640625 -135.804688 97.640625 -134.703125 C 97.640625 -133.773438 97.734375 -133.035156 97.921875 -132.484375 L 93.765625 -132.484375 C 93.953125 -131.566406 94.691406 -130.644531 95.984375 -129.71875 L 64.71875 -129.71875 C 65.820312 -128.800781 67.757812 -127.878906 70.53125 -126.953125 L 78.546875 -126.953125 C 80.023438 -126.398438 81.820312 -125.894531 83.9375 -125.4375 C 86.0625 -124.976562 88.320312 -124.5625 90.71875 -124.1875 L 99.578125 -124.1875 C 101.046875 -124 102.609375 -123.8125 104.265625 -123.625 C 105.929688 -123.445312 107.6875 -123.175781 109.53125 -122.8125 L 109.8125 -122.8125 C 112.945312 -122.4375 115.988281 -122.019531 118.9375 -121.5625 C 121.882812 -121.101562 124.648438 -120.597656 127.234375 -120.046875 L 128.890625 -120.046875 C 131.109375 -119.671875 133.179688 -119.253906 135.109375 -118.796875 C 137.046875 -118.335938 138.9375 -117.832031 140.78125 -117.28125 L 141.890625 -117.28125 C 142.816406 -117.09375 143.644531 -116.90625 144.375 -116.71875 C 145.113281 -116.539062 145.851562 -116.265625 146.59375 -115.890625 L 141.34375 -115.890625 C 142.082031 -115.703125 142.769531 -115.515625 143.40625 -115.328125 C 144.050781 -115.148438 144.742188 -114.878906 145.484375 -114.515625 L 157.109375 -114.515625 C 157.660156 -114.328125 158.257812 -114.140625 158.90625 -113.953125 C 159.550781 -113.773438 160.148438 -113.5 160.703125 -113.125 L 121.703125 -113.125 C 125.390625 -111.65625 128.335938 -110.273438 130.546875 -108.984375 L 178.953125 -108.984375 C 180.054688 -108.242188 181.160156 -107.550781 182.265625 -106.90625 C 183.378906 -106.257812 184.394531 -105.566406 185.3125 -104.828125 L 122.25 -104.828125 C 122.625 -104.640625 122.992188 -104.453125 123.359375 -104.265625 C 123.722656 -104.085938 124 -103.816406 124.1875 -103.453125 L 150.75 -103.453125 C 151.300781 -103.078125 151.851562 -102.613281 152.40625 -102.0625 C 152.957031 -101.507812 153.414062 -101.050781 153.78125 -100.6875 L 149.640625 -100.6875 C 151.484375 -99.019531 153.050781 -97.171875 154.34375 -95.140625 L 139.953125 -95.140625 C 140.328125 -94.773438 140.695312 -94.316406 141.0625 -93.765625 C 141.425781 -93.210938 141.703125 -92.75 141.890625 -92.375 L 196.65625 -92.375 L 199.140625 -88.234375 L 147.703125 -88.234375 C 148.066406 -87.492188 148.429688 -86.800781 148.796875 -86.15625 C 149.171875 -85.507812 149.453125 -84.816406 149.640625 -84.078125 L 173.421875 -84.078125 L 174.25 -81.3125 L 178.125 -81.3125 L 178.953125 -78.546875 L 183.9375 -78.546875 C 184.300781 -77.816406 184.53125 -76.941406 184.625 -75.921875 C 184.71875 -74.910156 184.859375 -73.941406 185.046875 -73.015625 L 185.3125 -70.25 L 186.984375 -70.25 C 187.160156 -69.882812 187.25 -69.425781 187.25 -68.875 C 187.25 -68.320312 187.25 -67.859375 187.25 -67.484375 L 188.078125 -67.484375 L 188.078125 -63.34375 L 190.578125 -63.34375 L 190.578125 -62.515625 C 190.578125 -61.773438 190.53125 -61.035156 190.4375 -60.296875 C 190.34375 -59.554688 190.296875 -58.726562 190.296875 -57.8125 L 187.53125 -57.8125 L 187.53125 -56.421875 L 188.078125 -56.421875 C 188.078125 -55.679688 188.03125 -54.988281 187.9375 -54.34375 C 187.851562 -53.695312 187.71875 -53.007812 187.53125 -52.28125 L 188.359375 -52.28125 L 187.53125 -48.125 L 189.75 -48.125 C 189.5625 -47.382812 189.375 -46.691406 189.1875 -46.046875 C 189 -45.398438 188.722656 -44.710938 188.359375 -43.984375 L 185.3125 -43.984375 C 185.3125 -43.796875 185.265625 -43.609375 185.171875 -43.421875 C 185.085938 -43.242188 185.046875 -42.96875 185.046875 -42.59375 L 191.671875 -42.59375 L 190.015625 -38.453125 L 171.484375 -38.453125 C 171.304688 -37.710938 170.984375 -37.019531 170.515625 -36.375 C 170.054688 -35.726562 169.644531 -35.035156 169.28125 -34.296875 L 208.28125 -34.296875 L 207.4375 -32.921875 L 224.3125 -32.921875 C 223.945312 -32.179688 223.53125 -31.488281 223.0625 -30.84375 C 222.601562 -30.195312 222.097656 -29.503906 221.546875 -28.765625 L 186.984375 -28.765625 C 186.796875 -28.578125 186.609375 -28.390625 186.421875 -28.203125 C 186.234375 -28.023438 186.050781 -27.75 185.875 -27.375 Z M 113.953125 -142.171875 L 122.25 -142.171875 C 121.695312 -142.359375 121.097656 -142.453125 120.453125 -142.453125 C 119.804688 -142.453125 119.113281 -142.453125 118.375 -142.453125 C 117.644531 -142.453125 116.910156 -142.453125 116.171875 -142.453125 C 115.429688 -142.453125 114.691406 -142.359375 113.953125 -142.171875 Z M 113.953125 -142.171875 "/></g></g></g></g></g></g></g></g></svg>